<?xml version="1.0" encoding="utf-8"?>
<!-- Generator: Adobe Illustrator 16.2.1, SVG Export Plug-In . SVG Version: 6.00 Build 0)  -->
<!DOCTYPE svg PUBLIC "-//W3C//DTD SVG 1.1//EN" "http://www.w3.org/Graphics/SVG/1.1/DTD/svg11.dtd">
<svg version="1.1" id="Layer_1" xmlns="http://www.w3.org/2000/svg" xmlns:xlink="http://www.w3.org/1999/xlink" x="0px" y="0px"
	 width="68px" height="88px" viewBox="0 0 68 88" enable-background="new 0 0 68 88" xml:space="preserve">
<g>
	<path fill="none" stroke="#3C3C3C" stroke-width="2" stroke-linecap="round" stroke-linejoin="round" stroke-miterlimit="10" d="
		M67,52.97c0,18.7-15.188,34.001-33,34.001S1,71.67,1,52.97v-17C1,17.271,16.188,1.97,34,1.97s33,15.3,33,33.999V52.97z"/>
	<path fill="none" stroke="#3C3C3C" stroke-width="2" stroke-miterlimit="10" d="M52.338,42.315c0,2.545-1.363,4.606-3.04,4.606
		c-1.683,0-3.043-2.061-3.043-4.606c0-2.54,1.36-4.602,3.043-4.602C50.975,37.713,52.338,39.776,52.338,42.315z"/>
	<path fill="none" stroke="#3C3C3C" stroke-width="2" stroke-miterlimit="10" d="M22.679,42.315c0,2.545-1.362,4.606-3.039,4.606
		c-1.683,0-3.043-2.061-3.043-4.606c0-2.54,1.36-4.602,3.043-4.602C21.316,37.713,22.679,39.776,22.679,42.315z"/>
	<path fill="none" stroke="#3C3C3C" stroke-width="2" stroke-linecap="round" stroke-linejoin="round" stroke-miterlimit="10" d="
		M56.177,58.535c-0.791-0.205-2.004,2.945-4.854,2.945c-3.66,0-5.383-6.311-11.103-6.311c-4.538,0-5.92,3.617-6.221,3.617
		c-0.3,0-1.683-3.617-6.22-3.617c-5.719,0-7.442,6.311-11.104,6.311c-2.85,0-4.062-3.15-4.853-2.945
		c-0.739,0.192,1.362,10.907,11.373,10.907c6.496,0,10.314-5.167,10.803-5.167c0.49,0,4.309,5.167,10.804,5.167
		C54.814,69.443,56.915,58.728,56.177,58.535z"/>
</g>
</svg>
