<?xml version="1.0" encoding="utf-8"?>
<!-- Generator: Adobe Illustrator 16.2.1, SVG Export Plug-In . SVG Version: 6.00 Build 0)  -->
<!DOCTYPE svg PUBLIC "-//W3C//DTD SVG 1.1//EN" "http://www.w3.org/Graphics/SVG/1.1/DTD/svg11.dtd">
<svg version="1.1" id="Layer_1" xmlns="http://www.w3.org/2000/svg" xmlns:xlink="http://www.w3.org/1999/xlink" x="0px" y="0px"
	 width="68px" height="88px" viewBox="0 0 68 88" enable-background="new 0 0 68 88" xml:space="preserve">
<g>
	<path fill="none" stroke="#3C3C3C" stroke-width="2" stroke-linecap="round" stroke-linejoin="round" stroke-miterlimit="10" d="
		M67,52.97c0,18.7-15.188,34.001-33,34.001S1,71.67,1,52.97v-17C1,17.271,16.188,1.97,34,1.97s33,15.3,33,33.999V52.97z"/>
	<g>
		<path fill="none" stroke="#3C3C3C" stroke-width="2" stroke-linecap="round" stroke-linejoin="round" stroke-miterlimit="10" d="
			M24.083,68.184c0,0,8.886,10.251,22.438,0"/>
		<path fill="none" stroke="#3C3C3C" stroke-width="2" stroke-linecap="round" stroke-linejoin="round" stroke-miterlimit="10" d="
			M30.482,58.949c0,0,2.779,2.607,8.688,0"/>
	</g>
	<path fill="none" stroke="#3C3C3C" stroke-width="2" stroke-linecap="round" stroke-linejoin="round" stroke-miterlimit="10" d="
		M55.794,40.116c-0.223-2.184-2.066-3.887-4.308-3.887c-1.798,0-3.338,1.094-3.994,2.653c-0.654-1.559-2.195-2.653-3.992-2.653
		c-2.243,0-4.086,1.704-4.309,3.887c-0.014,0.146-0.021,0.293-0.021,0.443c0,5.261,6.457,7.745,8.322,11.254l0,0
		c1.867-3.51,8.324-5.993,8.324-11.254C55.816,40.41,55.809,40.262,55.794,40.116z"/>
	<path fill="none" stroke="#3C3C3C" stroke-width="2" stroke-linecap="round" stroke-linejoin="round" stroke-miterlimit="10" d="
		M29.386,40.116c-0.223-2.184-2.066-3.887-4.309-3.887c-1.797,0-3.337,1.094-3.992,2.653c-0.655-1.559-2.197-2.653-3.992-2.653
		c-2.243,0-4.087,1.704-4.309,3.887c-0.016,0.146-0.022,0.293-0.022,0.443c0,5.261,6.457,7.745,8.323,11.254l0,0
		c1.866-3.51,8.324-5.993,8.324-11.254C29.409,40.41,29.4,40.262,29.386,40.116z"/>
</g>
</svg>
