<?xml version="1.0" encoding="utf-8"?>
<!-- Generator: Adobe Illustrator 16.2.1, SVG Export Plug-In . SVG Version: 6.00 Build 0)  -->
<!DOCTYPE svg PUBLIC "-//W3C//DTD SVG 1.1//EN" "http://www.w3.org/Graphics/SVG/1.1/DTD/svg11.dtd">
<svg version="1.1" id="Layer_1" xmlns="http://www.w3.org/2000/svg" xmlns:xlink="http://www.w3.org/1999/xlink" x="0px" y="0px"
	 width="68px" height="88px" viewBox="0 0 68 88" enable-background="new 0 0 68 88" xml:space="preserve">
<g>
	<path fill="none" stroke="#3C3C3C" stroke-width="2" stroke-miterlimit="10" d="M53.281,41.845c0,2.545-1.364,4.607-3.041,4.607
		c-1.682,0-3.042-2.062-3.042-4.607c0-2.54,1.36-4.602,3.042-4.602C51.917,37.243,53.281,39.306,53.281,41.845z"/>
	<path fill="none" stroke="#3C3C3C" stroke-width="2" stroke-miterlimit="10" d="M23.622,41.845c0,2.545-1.363,4.607-3.04,4.607
		c-1.683,0-3.043-2.062-3.043-4.607c0-2.54,1.36-4.602,3.043-4.602C22.259,37.243,23.622,39.306,23.622,41.845z"/>
	<path fill="none" stroke="#3C3C3C" stroke-width="2" stroke-linecap="round" stroke-linejoin="round" stroke-miterlimit="10" d="
		M67,52.499C67,71.2,51.812,86.5,34,86.5c-17.811,0-33-15.3-33-34.001v-17C1,16.8,16.189,1.5,34,1.5c17.812,0,33,15.3,33,33.999
		V52.499z"/>
	<g>
		<path fill="none" stroke="#3C3C3C" stroke-width="2" stroke-linecap="round" stroke-linejoin="round" stroke-miterlimit="10" d="
			M24.583,67.713c0,0,8.886,10.251,22.438,0"/>
		<path fill="none" stroke="#3C3C3C" stroke-width="2" stroke-linecap="round" stroke-linejoin="round" stroke-miterlimit="10" d="
			M30.982,58.479c0,0,2.78,2.607,8.687,0"/>
	</g>
</g>
</svg>
