<?xml version="1.0" encoding="utf-8"?>
<!-- Generator: Adobe Illustrator 16.2.1, SVG Export Plug-In . SVG Version: 6.00 Build 0)  -->
<!DOCTYPE svg PUBLIC "-//W3C//DTD SVG 1.1//EN" "http://www.w3.org/Graphics/SVG/1.1/DTD/svg11.dtd">
<svg version="1.1" id="Layer_1" xmlns="http://www.w3.org/2000/svg" xmlns:xlink="http://www.w3.org/1999/xlink" x="0px" y="0px"
	 width="68px" height="88px" viewBox="0 0 68 88" enable-background="new 0 0 68 88" xml:space="preserve">
<g>
	<path fill="none" stroke="#3C3C3C" stroke-width="2" stroke-linecap="round" stroke-linejoin="round" stroke-miterlimit="10" d="
		M67,52.97c0,18.7-15.188,34.001-33,34.001S1,71.67,1,52.97v-17C1,17.271,16.188,1.97,34,1.97s33,15.3,33,33.999V52.97z"/>
	<g>
		<path fill="none" stroke="#3C3C3C" stroke-width="2" stroke-linecap="round" stroke-linejoin="round" stroke-miterlimit="10" d="
			M23.88,68.184c0,0,8.886,10.251,22.438,0"/>
		<path fill="none" stroke="#3C3C3C" stroke-width="2" stroke-linecap="round" stroke-linejoin="round" stroke-miterlimit="10" d="
			M30.279,58.949c0,0,2.779,2.607,8.688,0"/>
	</g>
	<path fill="none" stroke="#3C3C3C" stroke-width="2" stroke-miterlimit="10" d="M52.338,42.315c0,2.545-1.363,4.606-3.04,4.606
		c-1.683,0-3.042-2.061-3.042-4.606c0-2.54,1.359-4.602,3.042-4.602C50.975,37.713,52.338,39.776,52.338,42.315z"/>
	<path fill="none" stroke="#3C3C3C" stroke-width="2" stroke-miterlimit="10" d="M22.679,42.315c0,2.545-1.362,4.606-3.039,4.606
		c-1.683,0-3.043-2.061-3.043-4.606c0-2.54,1.36-4.602,3.043-4.602C21.316,37.713,22.679,39.776,22.679,42.315z"/>
	
		<line fill="none" stroke="#3C3C3C" stroke-width="2" stroke-linejoin="round" stroke-miterlimit="10" x1="1" y1="32" x2="67" y2="32"/>
	<path fill="none" stroke="#3C3C3C" stroke-width="2" stroke-linejoin="round" stroke-miterlimit="10" d="M1.428,44.02L1.428,44.02
		c0,0,10.36,8.432,16.251,9.448c5.53,0.953,14.589-5.935,16.821-7.455c2.214,1.411,10.415,6.479,15.383,7.353
		c5.783,1.016,16.632-5.802,16.632-5.802l0,0"/>
</g>
</svg>
