<?xml version="1.0" encoding="utf-8"?>
<!-- Generator: Adobe Illustrator 16.2.1, SVG Export Plug-In . SVG Version: 6.00 Build 0)  -->
<!DOCTYPE svg PUBLIC "-//W3C//DTD SVG 1.1//EN" "http://www.w3.org/Graphics/SVG/1.1/DTD/svg11.dtd">
<svg version="1.1" id="Layer_1" xmlns="http://www.w3.org/2000/svg" xmlns:xlink="http://www.w3.org/1999/xlink" x="0px" y="0px"
	 width="68px" height="88px" viewBox="0 0 68 88" enable-background="new 0 0 68 88" xml:space="preserve">
<g>
	<path fill="none" stroke="#3C3C3C" stroke-width="2" stroke-linecap="round" stroke-linejoin="round" stroke-miterlimit="10" d="
		M67,51.97c0,18.7-15.188,34.001-33,34.001S1,70.67,1,51.97v-17C1,16.271,16.188,0.97,34,0.97s33,15.3,33,33.999V51.97z"/>
	<g>
		<path fill="none" stroke="#3C3C3C" stroke-width="2" stroke-linecap="round" stroke-linejoin="round" stroke-miterlimit="10" d="
			M24.083,67.184c0,0,8.886,10.251,22.438,0"/>
		<path fill="none" stroke="#3C3C3C" stroke-width="2" stroke-linecap="round" stroke-linejoin="round" stroke-miterlimit="10" d="
			M30.482,57.949c0,0,2.779,2.607,8.687,0"/>
	</g>
	<path fill="none" stroke="#3C3C3C" stroke-width="2" stroke-miterlimit="10" d="M52.781,40.873c0,2.545-1.364,4.606-3.041,4.606
		c-1.682,0-3.042-2.061-3.042-4.606c0-2.539,1.36-4.602,3.042-4.602C51.417,36.271,52.781,38.333,52.781,40.873z"/>
	<path fill="none" stroke="#3C3C3C" stroke-width="2" stroke-miterlimit="10" d="M23.122,40.873c0,2.545-1.363,4.606-3.04,4.606
		c-1.683,0-3.043-2.061-3.043-4.606c0-2.539,1.36-4.602,3.043-4.602C21.759,36.271,23.122,38.333,23.122,40.873z"/>
	<path fill="none" stroke="#3C3C3C" stroke-width="2" stroke-linecap="round" stroke-linejoin="round" stroke-miterlimit="10" d="
		M43.856,48.812c0,0,5.427,4.319,11.85,0"/>
	<path fill="none" stroke="#3C3C3C" stroke-width="2" stroke-linecap="round" stroke-linejoin="round" stroke-miterlimit="10" d="
		M13.733,48.812c0,0,5.427,4.319,11.851,0"/>
</g>
</svg>
