<?xml version="1.0" encoding="utf-8"?>
<!-- Generator: Adobe Illustrator 16.2.1, SVG Export Plug-In . SVG Version: 6.00 Build 0)  -->
<!DOCTYPE svg PUBLIC "-//W3C//DTD SVG 1.1//EN" "http://www.w3.org/Graphics/SVG/1.1/DTD/svg11.dtd">
<svg version="1.1" id="Layer_1" xmlns="http://www.w3.org/2000/svg" xmlns:xlink="http://www.w3.org/1999/xlink" x="0px" y="0px"
	 width="68px" height="88px" viewBox="0 0 68 88" enable-background="new 0 0 68 88" xml:space="preserve">
<g>
	<path fill="none" stroke="#3C3C3C" stroke-width="2" stroke-linecap="round" stroke-linejoin="round" stroke-miterlimit="10" d="
		M67,51.97c0,18.7-15.188,34.001-33,34.001S1,70.67,1,51.97v-17C1,16.271,16.188,0.97,34,0.97s33,15.3,33,33.999V51.97z"/>
	<g>
		<path fill="none" stroke="#3C3C3C" stroke-width="2" stroke-linecap="round" stroke-linejoin="round" stroke-miterlimit="10" d="
			M36.111,35.152c0-2.236-1.614-3.104-3.477-3.104c-2.111,0-3.477,1.117-5.091,2.606l-5.835-5.338
			c2.917-3.475,6.953-5.834,11.672-5.834c7.198,0,12.91,3.104,12.91,10.924c0,7.449-9.062,9.435-8.443,16.263h-9.309
			C27.297,42.601,36.111,39.124,36.111,35.152z M33.132,55.643c3.599,0,6.206,2.854,6.206,6.456c0,3.6-2.607,6.454-6.206,6.454
			c-3.602,0-6.207-2.854-6.207-6.454C26.925,58.497,29.53,55.643,33.132,55.643z"/>
	</g>
</g>
</svg>
