<?xml version="1.0" encoding="utf-8"?>
<!-- Generator: Adobe Illustrator 16.2.1, SVG Export Plug-In . SVG Version: 6.00 Build 0)  -->
<!DOCTYPE svg PUBLIC "-//W3C//DTD SVG 1.1//EN" "http://www.w3.org/Graphics/SVG/1.1/DTD/svg11.dtd">
<svg version="1.1" id="Layer_1" xmlns="http://www.w3.org/2000/svg" xmlns:xlink="http://www.w3.org/1999/xlink" x="0px" y="0px"
	 width="44px" height="51px" viewBox="0 0 44 51" enable-background="new 0 0 44 51" xml:space="preserve">
<path fill="none" stroke="#FFFFFF" stroke-width="2" stroke-linecap="round" stroke-linejoin="round" stroke-miterlimit="10" d="
	M38.37,1.374c-0.748-0.267-1.536-0.4-2.346-0.4c-3.158,0-6.095,2.035-7.168,4.96c-0.31,0.701-0.578,1.411-0.86,2.164
	c-1.032,2.739-2.103,5.575-5.355,8.121l-0.751,0.589l-0.55-0.431c-3.244-2.55-4.306-5.384-5.332-8.126
	c-0.283-0.756-0.55-1.47-0.859-2.172c-1.07-2.934-4.008-4.976-7.178-4.976c-0.801,0-1.584,0.133-2.326,0.394
	C1.691,2.702,0.088,7.21,1.054,10.723c0.737,3.363,3.832,5.99,7.078,5.99c0.46,0,0.921-0.053,1.365-0.154
	c1.534-0.351,2.388-0.808,2.978-1.293c0.229,0.409,0.489,0.904,0.732,1.369c0.788,1.5,1.83,3.484,3.38,5.781L6.344,37.036
	l-0.069,0.106c-2.151,3.547-2.298,7.175-0.411,10.218l1.521,2.449l14.532-19.99l14.606,20.188l1.526-2.45
	c1.893-3.036,1.755-6.663-0.388-10.217l-0.032-0.057L27.271,22.427c1.61-2.348,2.691-4.396,3.503-5.933
	c0.244-0.467,0.506-0.96,0.737-1.37c0.588,0.485,1.441,0.945,2.972,1.298c0.453,0.105,0.916,0.157,1.381,0.157
	c3.239,0,6.335-2.618,7.078-5.974C43.918,7.096,42.323,2.585,38.37,1.374z M5.618,11.59C3.995,9.946,3.986,6.559,6.202,5.383
	c2.638-1.673,6.169,1.014,5.995,3.958C12.197,12.541,7.992,13.994,5.618,11.59z M38.375,11.465c-2.377,2.398-6.58,0.935-6.571-2.265
	c-0.17-2.943,3.371-5.624,6-3.944C40.019,6.434,40.004,9.825,38.375,11.465z"/>
</svg>
