<?xml version="1.0" encoding="utf-8"?>
<!-- Generator: Adobe Illustrator 16.2.1, SVG Export Plug-In . SVG Version: 6.00 Build 0)  -->
<!DOCTYPE svg PUBLIC "-//W3C//DTD SVG 1.1//EN" "http://www.w3.org/Graphics/SVG/1.1/DTD/svg11.dtd">
<svg version="1.1" id="Layer_1" xmlns="http://www.w3.org/2000/svg" xmlns:xlink="http://www.w3.org/1999/xlink" x="0px" y="0px"
	 width="47px" height="51px" viewBox="0 0 47 51" enable-background="new 0 0 47 51" xml:space="preserve">
<path fill="#FFFFFF" d="M10.501,25.367L42.854,8.572l-2.758-5.73c-0.771-1.512-2.613-2.245-4.125-1.483L3.068,17.878
	c-1.511,0.767-2.312,2.577-1.55,4.096l1.274,2.869v5.683v9.207v6.143c0,1.695,1.751,4.053,3.448,4.053h36.841
	c1.694,0,2.69-2.355,2.69-4.053v-6.143v-9.207v-5.158H10.501z M27.729,40.718H15.449c-0.844,0-1.533-0.69-1.533-1.534
	c0-0.847,0.689-1.535,1.533-1.535h12.279c0.847,0,1.537,0.688,1.537,1.535C29.266,40.025,28.575,40.718,27.729,40.718z
	 M36.939,34.577h-21.49c-0.844,0-1.533-0.69-1.533-1.536s0.689-1.534,1.533-1.534h21.49c0.846,0,1.535,0.688,1.535,1.534
	S37.785,34.577,36.939,34.577z"/>
</svg>
