<?xml version="1.0" encoding="utf-8"?>
<!-- Generator: Adobe Illustrator 16.2.1, SVG Export Plug-In . SVG Version: 6.00 Build 0)  -->
<!DOCTYPE svg PUBLIC "-//W3C//DTD SVG 1.1//EN" "http://www.w3.org/Graphics/SVG/1.1/DTD/svg11.dtd">
<svg version="1.1" id="Layer_1" xmlns="http://www.w3.org/2000/svg" xmlns:xlink="http://www.w3.org/1999/xlink" x="0px" y="0px"
	 width="50px" height="52px" viewBox="0 0 50 52" enable-background="new 0 0 50 52" xml:space="preserve">
<g>
	<path fill="none" stroke="#FFFFFF" stroke-width="2" stroke-miterlimit="10" d="M34.163,6.959l-8.777-5.897
		c-0.319-0.215-0.603-0.076-0.629,0.309l-0.167,2.45c-2.368-0.234-4.749-0.068-7.1,0.501c-5.529,1.34-10.205,4.753-13.167,9.611
		C1.361,18.79,0.468,24.51,1.809,30.038c1.445,5.963,5.394,11.015,10.835,13.859c0.443,0.232,0.92,0.344,1.388,0.344
		c1.083,0,2.128-0.588,2.663-1.612c0.77-1.47,0.201-3.283-1.268-4.053c-3.908-2.043-6.744-5.671-7.782-9.952
		c-0.962-3.97-0.32-8.077,1.806-11.565c2.127-3.487,5.484-5.938,9.454-6.9c1.75-0.425,3.52-0.534,5.278-0.339l-0.144,2.102
		c-0.026,0.385,0.235,0.561,0.581,0.391l9.496-4.655C34.462,7.489,34.483,7.174,34.163,6.959z"/>
	<path fill="none" stroke="#FFFFFF" stroke-width="2" stroke-miterlimit="10" d="M47.957,21.784
		c-1.14-4.704-3.753-8.764-7.557-11.742c-1.305-1.022-3.193-0.789-4.215,0.517c-1.022,1.305-0.793,3.199,0.513,4.222
		c2.729,2.137,4.604,5.066,5.423,8.444c1.986,8.196-3.064,16.508-11.26,18.496c-0.724,0.175-1.456,0.318-2.19,0.404l-0.092-2.177
		c-0.016-0.385-0.295-0.531-0.62-0.324l-8.929,5.664c-0.326,0.206-0.312,0.521,0.028,0.7l9.37,4.901
		c0.341,0.179,0.607,0.01,0.592-0.375l-0.097-2.322c1.126-0.116,2.248-0.334,3.353-0.602C43.689,44.824,50.724,33.197,47.957,21.784
		z"/>
</g>
</svg>
