<?xml version="1.0" encoding="utf-8"?>
<!-- Generator: Adobe Illustrator 16.2.1, SVG Export Plug-In . SVG Version: 6.00 Build 0)  -->
<!DOCTYPE svg PUBLIC "-//W3C//DTD SVG 1.1//EN" "http://www.w3.org/Graphics/SVG/1.1/DTD/svg11.dtd">
<svg version="1.1" id="Layer_1" xmlns="http://www.w3.org/2000/svg" xmlns:xlink="http://www.w3.org/1999/xlink" x="0px" y="0px"
	 width="39px" height="52px" viewBox="0 0 39 52" enable-background="new 0 0 39 52" xml:space="preserve">
<g>
	<path fill="none" stroke="#FFFFFF" stroke-width="2" stroke-linecap="round" stroke-linejoin="round" stroke-miterlimit="10" d="
		M38.5,31.118c0,10.927-8.592,19.867-19,19.867s-19-8.94-19-19.867v-9.934c0-10.926,8.592-19.866,19-19.866s19,8.94,19,19.866
		V31.118z"/>
	<path fill="none" stroke="#FFFFFF" stroke-width="2" stroke-miterlimit="10" d="M30.591,24.633c0,1.487-0.797,2.692-1.776,2.692
		c-0.983,0-1.777-1.205-1.777-2.692c0-1.483,0.794-2.689,1.777-2.689C29.794,21.944,30.591,23.15,30.591,24.633z"/>
	<path fill="none" stroke="#FFFFFF" stroke-width="2" stroke-miterlimit="10" d="M13.261,24.633c0,1.487-0.797,2.692-1.776,2.692
		c-0.983,0-1.778-1.205-1.778-2.692c0-1.483,0.795-2.689,1.778-2.689C12.464,21.944,13.261,23.15,13.261,24.633z"/>
</g>
</svg>
