<?xml version="1.0" encoding="utf-8"?>
<!-- Generator: Adobe Illustrator 16.2.1, SVG Export Plug-In . SVG Version: 6.00 Build 0)  -->
<!DOCTYPE svg PUBLIC "-//W3C//DTD SVG 1.1//EN" "http://www.w3.org/Graphics/SVG/1.1/DTD/svg11.dtd">
<svg version="1.1" id="Layer_1" xmlns="http://www.w3.org/2000/svg" xmlns:xlink="http://www.w3.org/1999/xlink" x="0px" y="0px"
	 width="40px" height="52px" viewBox="0 0 40 52" enable-background="new 0 0 40 52" xml:space="preserve">
<g>
	<g>
		<path fill="none" stroke="#FFFFFF" stroke-width="2" stroke-linecap="round" stroke-linejoin="round" stroke-miterlimit="10" d="
			M13.742,39.949c0,0,5.227,6.03,13.199,0"/>
		<path fill="none" stroke="#FFFFFF" stroke-width="2" stroke-linecap="round" stroke-linejoin="round" stroke-miterlimit="10" d="
			M17.508,34.517c0,0,1.635,1.534,5.109,0"/>
	</g>
	<path fill="none" stroke="#FFFFFF" stroke-width="2" stroke-miterlimit="10" d="M30.623,24.472c0,1.498-0.801,2.71-1.787,2.71
		c-0.99,0-1.789-1.212-1.789-2.71c0-1.493,0.799-2.707,1.789-2.707C29.822,21.765,30.623,22.979,30.623,24.472z"/>
	<path fill="none" stroke="#FFFFFF" stroke-width="2" stroke-miterlimit="10" d="M13.178,24.472c0,1.498-0.803,2.71-1.789,2.71
		c-0.988,0-1.789-1.212-1.789-2.71c0-1.493,0.801-2.707,1.789-2.707C12.375,21.765,13.178,22.979,13.178,24.472z"/>
	<path fill="none" stroke="#FFFFFF" stroke-width="2" stroke-linecap="round" stroke-linejoin="round" stroke-miterlimit="10" d="
		M25.375,29.142c0,0,3.191,2.542,6.971,0"/>
	<path fill="none" stroke="#FFFFFF" stroke-width="2" stroke-linecap="round" stroke-linejoin="round" stroke-miterlimit="10" d="
		M7.654,29.142c0,0,3.193,2.542,6.971,0"/>
</g>
<path fill="none" stroke="#FFFFFF" stroke-width="2" stroke-linecap="round" stroke-linejoin="round" stroke-miterlimit="10" d="
	M39,31c0,11-8.676,20-19,20C9.678,51,1,42,1,31V20.999C1,10,9.678,1,20,1c10.324,0,19,9,19,19.999V31z"/>
</svg>
