<?xml version="1.0" encoding="utf-8"?>
<!-- Generator: Adobe Illustrator 16.2.1, SVG Export Plug-In . SVG Version: 6.00 Build 0)  -->
<!DOCTYPE svg PUBLIC "-//W3C//DTD SVG 1.1//EN" "http://www.w3.org/Graphics/SVG/1.1/DTD/svg11.dtd">
<svg version="1.1" id="Layer_1" xmlns="http://www.w3.org/2000/svg" xmlns:xlink="http://www.w3.org/1999/xlink" x="0px" y="0px"
	 width="40px" height="52px" viewBox="0 0 40 52" enable-background="new 0 0 40 52" xml:space="preserve">
<g>
	<path fill="none" stroke="#FFFFFF" stroke-width="2" stroke-linecap="round" stroke-linejoin="round" stroke-miterlimit="10" d="
		M39,31.151c0,11-8.865,20-19,20s-19-9-19-20v-10c0-11,8.865-20,19-20s19,9,19,20V31.151z"/>
	<g>
		<path fill="none" stroke="#FFFFFF" stroke-width="2" stroke-linecap="round" stroke-linejoin="round" stroke-miterlimit="10" d="
			M21.043,21.258c0-1.315-0.919-1.825-1.978-1.825c-1.202,0-1.979,0.657-2.897,1.533l-3.319-3.14
			c1.659-2.044,3.956-3.432,6.64-3.432c4.097,0,7.348,1.826,7.348,6.426c0,4.382-5.157,5.55-4.805,9.567h-5.298
			C16.027,25.64,21.043,23.595,21.043,21.258z M19.347,33.312c2.05,0,3.532,1.679,3.532,3.798c0,2.117-1.482,3.796-3.532,3.796
			c-2.049,0-3.532-1.679-3.532-3.796C15.814,34.99,17.298,33.312,19.347,33.312z"/>
	</g>
</g>
</svg>
