<?xml version="1.0" encoding="utf-8"?>
<!-- Generator: Adobe Illustrator 16.2.1, SVG Export Plug-In . SVG Version: 6.00 Build 0)  -->
<!DOCTYPE svg PUBLIC "-//W3C//DTD SVG 1.1//EN" "http://www.w3.org/Graphics/SVG/1.1/DTD/svg11.dtd">
<svg version="1.1" id="Layer_1" xmlns="http://www.w3.org/2000/svg" xmlns:xlink="http://www.w3.org/1999/xlink" x="0px" y="0px"
	 width="40px" height="52px" viewBox="0 0 40 52" enable-background="new 0 0 40 52" xml:space="preserve">
<g>
	<path fill="none" stroke="#FFFFFF" stroke-width="2" stroke-linecap="round" stroke-linejoin="round" stroke-miterlimit="10" d="
		M39,31c0,11-8.676,20-19,20C9.678,51,1,42,1,31V20.999C1,10,9.678,1,20,1c10.324,0,19,9,19,19.999V31z"/>
	<path fill="none" stroke="#FFFFFF" stroke-width="2" stroke-miterlimit="10" d="M30.833,24.733c0,1.496-0.791,2.709-1.762,2.709
		c-0.976,0-1.764-1.213-1.764-2.709c0-1.494,0.788-2.708,1.764-2.708C30.042,22.025,30.833,23.239,30.833,24.733z"/>
	<ellipse fill="none" stroke="#FFFFFF" stroke-width="2" stroke-miterlimit="10" cx="11.879" cy="24.733" rx="1.762" ry="2.709"/>
	<path fill="none" stroke="#FFFFFF" stroke-width="2" stroke-linecap="round" stroke-linejoin="round" stroke-miterlimit="10" d="
		M33.058,34.273c-0.458-0.12-1.161,1.732-2.813,1.732c-2.122,0-3.121-3.712-6.436-3.712c-2.63,0-3.432,2.128-3.605,2.128
		s-0.975-2.128-3.604-2.128c-3.314,0-4.313,3.712-6.436,3.712c-1.651,0-2.354-1.853-2.812-1.732
		c-0.428,0.113,0.789,6.416,6.592,6.416c3.765,0,5.979-3.04,6.261-3.04c0.284,0,2.498,3.04,6.262,3.04
		C32.269,40.69,33.484,34.387,33.058,34.273z"/>
</g>
</svg>
