<?xml version="1.0" encoding="utf-8"?>
<!-- Generator: Adobe Illustrator 16.2.1, SVG Export Plug-In . SVG Version: 6.00 Build 0)  -->
<!DOCTYPE svg PUBLIC "-//W3C//DTD SVG 1.1//EN" "http://www.w3.org/Graphics/SVG/1.1/DTD/svg11.dtd">
<svg version="1.1" id="Layer_1" xmlns="http://www.w3.org/2000/svg" xmlns:xlink="http://www.w3.org/1999/xlink" x="0px" y="0px"
	 width="40px" height="52px" viewBox="0 0 40 52" enable-background="new 0 0 40 52" xml:space="preserve">
<g>
	<path fill="none" stroke="#FFFFFF" stroke-width="2" stroke-linecap="round" stroke-linejoin="round" stroke-miterlimit="10" d="
		M39,31c0,11-8.523,20-19,20S1,42,1,31V20.999C1,10,9.523,1,20,1s19,9,19,19.999V31z"/>
	<g>
		<path fill="none" stroke="#FFFFFF" stroke-width="2" stroke-linecap="round" stroke-linejoin="round" stroke-miterlimit="10" d="
			M14.361,39.949c0,0,5.227,6.03,13.198,0"/>
		<path fill="none" stroke="#FFFFFF" stroke-width="2" stroke-linecap="round" stroke-linejoin="round" stroke-miterlimit="10" d="
			M18.125,34.517c0,0,1.635,1.534,5.11,0"/>
	</g>
	<path fill="none" stroke="#FFFFFF" stroke-width="2" stroke-linecap="round" stroke-linejoin="round" stroke-miterlimit="10" d="
		M33.015,23.438c-0.131-1.284-1.216-2.286-2.535-2.286c-1.057,0-1.962,0.644-2.349,1.56c-0.384-0.916-1.291-1.56-2.349-1.56
		c-1.319,0-2.403,1.002-2.534,2.286c-0.008,0.086-0.013,0.173-0.013,0.262c0,3.094,3.799,4.555,4.896,6.619l0,0
		c1.099-2.064,4.897-3.525,4.897-6.619C33.028,23.611,33.023,23.524,33.015,23.438z"/>
	<path fill="none" stroke="#FFFFFF" stroke-width="2" stroke-linecap="round" stroke-linejoin="round" stroke-miterlimit="10" d="
		M17.48,23.438c-0.131-1.284-1.216-2.286-2.534-2.286c-1.058,0-1.964,0.644-2.349,1.56c-0.386-0.916-1.292-1.56-2.348-1.56
		c-1.319,0-2.405,1.002-2.536,2.286c-0.009,0.086-0.013,0.173-0.013,0.262c0,3.094,3.799,4.555,4.896,6.619l0,0
		c1.098-2.064,4.896-3.525,4.896-6.619C17.494,23.611,17.489,23.524,17.48,23.438z"/>
</g>
</svg>
