<?xml version="1.0" encoding="utf-8"?>
<!-- Generator: Adobe Illustrator 16.2.1, SVG Export Plug-In . SVG Version: 6.00 Build 0)  -->
<!DOCTYPE svg PUBLIC "-//W3C//DTD SVG 1.1//EN" "http://www.w3.org/Graphics/SVG/1.1/DTD/svg11.dtd">
<svg version="1.1" id="Layer_1" xmlns="http://www.w3.org/2000/svg" xmlns:xlink="http://www.w3.org/1999/xlink" x="0px" y="0px"
	 width="40px" height="52px" viewBox="0 0 40 52" enable-background="new 0 0 40 52" xml:space="preserve">
<g>
	<ellipse fill="none" stroke="#FFFFFF" stroke-width="2" stroke-miterlimit="10" cx="28.721" cy="24.723" rx="1.789" ry="2.71"/>
	<path fill="none" stroke="#FFFFFF" stroke-width="2" stroke-miterlimit="10" d="M13.067,24.723c0,1.497-0.802,2.71-1.788,2.71
		c-0.992,0-1.79-1.213-1.79-2.71c0-1.494,0.798-2.707,1.79-2.707C12.265,22.016,13.067,23.229,13.067,24.723z"/>
	<g>
		<path fill="none" stroke="#FFFFFF" stroke-width="2" stroke-linecap="round" stroke-linejoin="round" stroke-miterlimit="10" d="
			M13.631,39.939c0,0,5.226,6.03,13.195,0"/>
		<path fill="none" stroke="#FFFFFF" stroke-width="2" stroke-linecap="round" stroke-linejoin="round" stroke-miterlimit="10" d="
			M17.394,34.506c0,0,1.637,1.537,5.11,0"/>
	</g>
</g>
<path fill="none" stroke="#FFFFFF" stroke-width="2" stroke-linecap="round" stroke-linejoin="round" stroke-miterlimit="10" d="
	M39,31.118c0,10.927-8.592,19.867-19,19.867S1,42.045,1,31.118v-9.934C1,10.258,9.592,1.318,20,1.318s19,8.94,19,19.866V31.118z"/>
</svg>
