<?xml version="1.0" encoding="utf-8"?>
<!-- Generator: Adobe Illustrator 16.2.1, SVG Export Plug-In . SVG Version: 6.00 Build 0)  -->
<!DOCTYPE svg PUBLIC "-//W3C//DTD SVG 1.1//EN" "http://www.w3.org/Graphics/SVG/1.1/DTD/svg11.dtd">
<svg version="1.1" id="Layer_1" xmlns="http://www.w3.org/2000/svg" xmlns:xlink="http://www.w3.org/1999/xlink" x="0px" y="0px"
	 width="40px" height="52px" viewBox="0 0 40 52" enable-background="new 0 0 40 52" xml:space="preserve">
<g>
	<path fill="none" stroke="#FFFFFF" stroke-width="2" stroke-linecap="round" stroke-linejoin="round" stroke-miterlimit="10" d="
		M39,31.118c0,10.927-8.592,19.867-19,19.867S1,42.045,1,31.118v-9.934C1,10.258,9.592,1.318,20,1.318s19,8.94,19,19.866V31.118z"/>
	<g>
		<path fill="none" stroke="#FFFFFF" stroke-width="2" stroke-linecap="round" stroke-linejoin="round" stroke-miterlimit="10" d="
			M14.049,40.008c0,0,5.192,5.99,13.111,0"/>
		<path fill="none" stroke="#FFFFFF" stroke-width="2" stroke-linecap="round" stroke-linejoin="round" stroke-miterlimit="10" d="
			M17.788,34.611c0,0,1.624,1.524,5.077,0"/>
	</g>
	<ellipse fill="none" stroke="#FFFFFF" stroke-width="2" stroke-miterlimit="10" cx="28.9" cy="24.893" rx="1.777" ry="2.691"/>
	<ellipse fill="none" stroke="#FFFFFF" stroke-width="2" stroke-miterlimit="10" cx="11.57" cy="24.893" rx="1.777" ry="2.691"/>
	
		<line fill="none" stroke="#FFFFFF" stroke-width="2" stroke-linejoin="round" stroke-miterlimit="10" x1="1" y1="19" x2="39" y2="19"/>
	<path fill="none" stroke="#FFFFFF" stroke-width="2" stroke-linejoin="round" stroke-miterlimit="10" d="M0.93,25.888L0.93,25.888
		c0,0,6.054,4.927,9.496,5.521c3.231,0.557,8.524-3.468,9.829-4.356c1.293,0.824,6.085,3.786,8.988,4.296
		c3.379,0.594,9.719-3.39,9.719-3.39l0,0"/>
</g>
</svg>
