<?xml version="1.0" encoding="utf-8"?>
<!-- Generator: Adobe Illustrator 16.2.1, SVG Export Plug-In . SVG Version: 6.00 Build 0)  -->
<!DOCTYPE svg PUBLIC "-//W3C//DTD SVG 1.1//EN" "http://www.w3.org/Graphics/SVG/1.1/DTD/svg11.dtd">
<svg version="1.1" id="Layer_1" xmlns="http://www.w3.org/2000/svg" xmlns:xlink="http://www.w3.org/1999/xlink" x="0px" y="0px"
	 width="85px" height="145px" viewBox="0 0 85 145" enable-background="new 0 0 85 145" xml:space="preserve">
<g>
	<g>
		<path fill="none" stroke="#FFFFFF" stroke-width="2" stroke-linecap="round" stroke-linejoin="round" stroke-miterlimit="10" d="
			M41.193,49.924c3.162,0,5.45,2.51,5.45,5.674s-2.288,5.674-5.45,5.674c-3.16,0-5.448-2.51-5.448-5.674
			S38.033,49.924,41.193,49.924z M43.81,30.666c0-1.963-1.417-2.727-3.052-2.727c-1.852,0-3.051,0.982-4.468,2.291l-5.122-4.692
			c2.561-3.055,6.103-5.128,10.244-5.128c6.321,0,11.335,2.728,11.335,9.602c0,6.547-7.956,8.292-7.411,14.294h-8.174
			C36.071,37.213,43.81,34.158,43.81,30.666z M83.987,143.913v-38.358h-0.093C82.521,95.449,64.52,87.451,42.5,87.451
			c-22.017,0-40.018,7.998-41.393,18.104H1.013v38.358H83.987z M71.257,46.546c0,16.668-12.899,30.301-28.757,30.301
			c-15.857,0-28.757-13.633-28.757-30.301V31.393c0-16.668,12.9-30.306,28.757-30.306c15.857,0,28.757,13.638,28.757,30.306V46.546z
			"/>
	</g>
	
		<line fill="none" stroke="#FFFFFF" stroke-width="2" stroke-linecap="round" stroke-linejoin="round" stroke-miterlimit="10" x1="28.703" y1="73.332" x2="28.703" y2="87.329"/>
	
		<line fill="none" stroke="#FFFFFF" stroke-width="2" stroke-linecap="round" stroke-linejoin="round" stroke-miterlimit="10" x1="57.703" y1="73.332" x2="57.703" y2="87.329"/>
</g>
</svg>
