<?xml version="1.0" encoding="utf-8"?>
<!-- Generator: Adobe Illustrator 16.2.1, SVG Export Plug-In . SVG Version: 6.00 Build 0)  -->
<!DOCTYPE svg PUBLIC "-//W3C//DTD SVG 1.1//EN" "http://www.w3.org/Graphics/SVG/1.1/DTD/svg11.dtd">
<svg version="1.1" id="Layer_1" xmlns="http://www.w3.org/2000/svg" xmlns:xlink="http://www.w3.org/1999/xlink" x="0px" y="0px"
	 width="142px" height="145px" viewBox="0 0 142 145" enable-background="new 0 0 142 145" xml:space="preserve">
<g>
	<g>
		<g>
			<path fill="none" stroke="#FFFFFF" stroke-width="2" stroke-linecap="round" stroke-linejoin="round" stroke-miterlimit="10" d="
				M32.686,16.039c0-0.98,0.661-1.329,1.471-0.776l35.178,24.072c0.81,0.553,1.471,1.808,1.471,2.787v87.238
				c-13.399-19.249-36.421-26.53-36.421-26.53c-0.934-0.296-1.698-1.338-1.698-2.318V16.039z"/>
		</g>
		<g>
			<path fill="none" stroke="#FFFFFF" stroke-width="2" stroke-linecap="round" stroke-linejoin="round" stroke-miterlimit="10" d="
				M70.805,129.36"/>
			<path fill="none" stroke="#FFFFFF" stroke-width="2" stroke-linecap="round" stroke-linejoin="round" stroke-miterlimit="10" d="
				M70.805,129.36l-58.249-8.696c-0.972-0.122-1.767-1.024-1.767-2.005V34.757c0-0.979,0.802-1.781,1.781-1.781l6.706,1.711
				c0.979,0,0.802,0.801,0.802,1.781"/>
		</g>
		<g>
			<path fill="none" stroke="#FFFFFF" stroke-width="2" stroke-linecap="round" stroke-linejoin="round" stroke-miterlimit="10" d="
				M32.686,27.858l-10.948-6.064c-0.913-0.357-1.659,0.152-1.659,1.132v85.791c0,0.98,0.796,1.88,1.769,1.998
				c0,0,6.035,0.742,9.932,1.847c13.459,3.802,39.026,16.799,39.026,16.799"/>
		</g>
	</g>
	<g>
		<g>
			<path fill="none" stroke="#FFFFFF" stroke-width="2" stroke-linecap="round" stroke-linejoin="round" stroke-miterlimit="10" d="
				M108.924,16.039c0-0.98-0.661-1.329-1.471-0.776L72.274,39.335c-0.809,0.553-1.47,1.808-1.47,2.787v87.238
				c13.399-19.249,36.42-26.53,36.42-26.53c0.935-0.296,1.699-1.338,1.699-2.318V16.039z"/>
		</g>
		<g>
			<path fill="none" stroke="#FFFFFF" stroke-width="2" stroke-linecap="round" stroke-linejoin="round" stroke-miterlimit="10" d="
				M70.805,129.36"/>
			<path fill="none" stroke="#FFFFFF" stroke-width="2" stroke-linecap="round" stroke-linejoin="round" stroke-miterlimit="10" d="
				M70.805,129.36l58.248-8.696c0.972-0.122,1.769-1.024,1.769-2.005V34.757c0-0.979-0.802-1.781-1.781-1.781l-6.707,1.711
				c-0.979,0-0.801,0.801-0.801,1.781"/>
		</g>
		<g>
			<path fill="none" stroke="#FFFFFF" stroke-width="2" stroke-linecap="round" stroke-linejoin="round" stroke-miterlimit="10" d="
				M108.924,27.858l10.949-6.064c0.912-0.357,1.659,0.152,1.659,1.132v85.791c0,0.98-0.797,1.88-1.769,1.998
				c0,0-6.036,0.742-9.932,1.847c-13.461,3.802-39.027,16.799-39.027,16.799"/>
		</g>
	</g>
	
		<polyline fill="none" stroke="#FFFFFF" stroke-width="2" stroke-linecap="round" stroke-linejoin="round" stroke-miterlimit="10" points="
		131,44 140,44 140,130 1,130 1,44 10,44 	"/>
</g>
</svg>
