<?xml version="1.0" encoding="utf-8"?>
<!-- Generator: Adobe Illustrator 16.2.1, SVG Export Plug-In . SVG Version: 6.00 Build 0)  -->
<!DOCTYPE svg PUBLIC "-//W3C//DTD SVG 1.1//EN" "http://www.w3.org/Graphics/SVG/1.1/DTD/svg11.dtd">
<svg version="1.1" id="Layer_1" xmlns="http://www.w3.org/2000/svg" xmlns:xlink="http://www.w3.org/1999/xlink" x="0px" y="0px"
	 width="95px" height="145px" viewBox="0 0 95 145" enable-background="new 0 0 95 145" xml:space="preserve">
<g>
	<path fill="none" stroke="#FFFFFF" stroke-width="2" stroke-miterlimit="10" d="M80.165,7.771
		C69.853,1.818,59.711,0.354,48.693,17.954l0,0L5.896,92.084l-2.964,49.631l40.927-27.712c0,0,42.717-74.043,43.067-74.651
		C97.16,21.628,90.488,13.731,80.165,7.771z"/>
	<line fill="none" stroke="#FFFFFF" stroke-width="2" stroke-miterlimit="10" x1="44.48" y1="25.995" x2="82.347" y2="47.858"/>
	<line fill="none" stroke="#FFFFFF" stroke-width="2" stroke-miterlimit="10" x1="40.775" y1="32.413" x2="78.642" y2="54.274"/>
	<line fill="none" stroke="#FFFFFF" stroke-width="2" stroke-miterlimit="10" x1="37.069" y1="38.831" x2="74.935" y2="60.693"/>
	<line fill="none" stroke="#FFFFFF" stroke-width="2" stroke-miterlimit="10" x1="5.573" y1="93.385" x2="43.439" y2="115.247"/>
	<line fill="none" stroke="#FFFFFF" stroke-width="2" stroke-miterlimit="10" x1="65.173" y1="54.629" x2="33.676" y2="109.183"/>
	<line fill="none" stroke="#FFFFFF" stroke-width="2" stroke-miterlimit="10" x1="46.561" y1="43.884" x2="15.062" y2="98.437"/>
	<line fill="none" stroke="#FFFFFF" stroke-width="2" stroke-miterlimit="10" x1="19.929" y1="130.769" x2="3.884" y2="121.505"/>
</g>
</svg>
