<?xml version="1.0" encoding="utf-8"?>
<!-- Generator: Adobe Illustrator 16.2.1, SVG Export Plug-In . SVG Version: 6.00 Build 0)  -->
<!DOCTYPE svg PUBLIC "-//W3C//DTD SVG 1.1//EN" "http://www.w3.org/Graphics/SVG/1.1/DTD/svg11.dtd">
<svg version="1.1" id="Layer_1" xmlns="http://www.w3.org/2000/svg" xmlns:xlink="http://www.w3.org/1999/xlink" x="0px" y="0px"
	 width="116px" height="145px" viewBox="0 0 116 145" enable-background="new 0 0 116 145" xml:space="preserve">
<g>
	<path fill="none" stroke="#FFFFFF" stroke-width="2" stroke-linecap="round" stroke-linejoin="round" stroke-miterlimit="10" d="
		M79.514,27.561L58.756,13.615c-0.757-0.508-1.427-0.18-1.487,0.729l-0.395,5.795c-5.603-0.555-11.232-0.161-16.792,1.186
		c-13.076,3.169-24.135,11.241-31.14,22.729C1.938,55.541-0.174,69.068,2.995,82.143c3.42,14.101,12.76,26.048,25.625,32.776
		c1.051,0.549,2.176,0.811,3.284,0.811c2.559,0,5.03-1.388,6.298-3.812c1.818-3.474,0.476-7.765-3-9.583
		c-9.242-4.832-15.948-13.412-18.403-23.537c-2.275-9.387-0.76-19.101,4.27-27.349c5.029-8.249,12.97-14.044,22.358-16.32
		c4.14-1.003,8.324-1.262,12.481-0.801l-0.338,4.971c-0.062,0.91,0.556,1.326,1.375,0.924l22.456-11.008
		C80.22,28.813,80.271,28.069,79.514,27.561z"/>
	<path fill="none" stroke="#FFFFFF" stroke-width="2" stroke-linecap="round" stroke-linejoin="round" stroke-miterlimit="10" d="
		M112.136,62.621c-2.696-11.126-8.877-20.726-17.87-27.77c-3.088-2.417-7.552-1.866-9.971,1.221
		c-2.417,3.088-1.875,7.568,1.213,9.986c6.455,5.055,10.888,11.982,12.825,19.971c4.699,19.382-7.247,39.041-26.629,43.74
		c-1.709,0.414-3.441,0.752-5.181,0.956l-0.214-5.148c-0.039-0.91-0.699-1.256-1.469-0.767l-21.117,13.396
		c-0.77,0.487-0.738,1.232,0.069,1.654l22.159,11.595c0.808,0.421,1.437,0.022,1.398-0.889l-0.229-5.493
		c2.664-0.274,5.317-0.79,7.93-1.423C102.043,117.108,118.678,89.612,112.136,62.621z"/>
</g>
</svg>
