<?xml version="1.0" encoding="utf-8"?>
<!-- Generator: Adobe Illustrator 16.2.1, SVG Export Plug-In . SVG Version: 6.00 Build 0)  -->
<!DOCTYPE svg PUBLIC "-//W3C//DTD SVG 1.1//EN" "http://www.w3.org/Graphics/SVG/1.1/DTD/svg11.dtd">
<svg version="1.1" id="Layer_1" xmlns="http://www.w3.org/2000/svg" xmlns:xlink="http://www.w3.org/1999/xlink" x="0px" y="0px"
	 width="247.782px" height="254.266px" viewBox="0 0 247.782 254.266" enable-background="new 0 0 247.782 254.266"
	 xml:space="preserve">
<g>
	<g id="XMLID_26_">
		<g>
			<polygon fill="#FFFFFF" points="126.018,164.951 125.892,165.168 103.835,169.407 122.428,137.202 144.487,132.959 			"/>
			<polygon fill="#FFFFFF" points="152.486,119.106 144.487,132.959 122.428,137.202 130.422,123.346 130.427,123.348 
				152.481,119.103 			"/>
			<polygon fill="#FFFFFF" points="168.478,91.408 152.486,119.106 152.481,119.103 130.427,123.348 130.422,123.346 
				146.413,95.648 146.418,95.651 			"/>
			<polygon fill="#FFFFFF" points="176.476,77.555 168.478,91.408 146.418,95.651 146.413,95.648 154.406,81.804 			"/>
			<path fill="#FFFFFF" d="M178.807,73.518l-2.331,4.037l-22.069,4.25l10.099-17.493c0.695-1.193,0.261-2.741-0.878-3.398
				s-2.696-0.26-2.771-0.132l-10.458,18.114l-7.104-20.498l-0.508-0.293l2.331-4.037c10.479-18.14,24.689-17.716,30.695-14.249
				C184.889,45.058,186.419,60.321,178.807,73.518z"/>
			<path fill="#FFFFFF" d="M122.428,137.202l-18.593,32.205l-16.229,28.11c-2.314,1.093-8.696,10.274-8.696,10.274
				s4.344-9.562,4.426-12.74l16.481-28.547l18.591-32.199l7.949-13.769l16.049-27.797l7.993-13.844l10.458-18.114
				c0.074-0.128,1.632-0.525,2.771,0.132s1.573,2.205,0.878,3.398l-10.099,17.493l-7.993,13.844l-15.991,27.698L122.428,137.202z"/>
			<polygon fill="#FFFFFF" points="118.408,134.305 99.817,166.504 92.202,145.718 92.328,145.5 110.798,113.509 110.803,113.511 
							"/>
			<polygon fill="#FFFFFF" points="126.356,120.537 118.408,134.305 110.803,113.511 110.798,113.509 119.038,99.238 119.042,99.24 
							"/>
			<polygon fill="#FFFFFF" points="142.405,92.74 126.356,120.537 119.042,99.24 119.038,99.238 134.79,71.953 135.298,72.246 			
				"/>
			<polygon fill="#FFFFFF" points="150.398,78.896 142.405,92.74 135.298,72.246 134.79,71.953 142.786,58.104 143.294,58.397 			
				"/>
		</g>
		<g>
			<path fill="none" stroke="#00A89E" stroke-width="2" stroke-miterlimit="10" d="M92.328,145.5l18.47-31.991l8.24-14.271
				l15.752-27.285l7.996-13.849l2.331-4.037c10.479-18.14,24.689-17.716,30.695-14.249c9.076,5.24,10.606,20.502,2.994,33.699
				l-2.331,4.037l-7.998,13.854l-15.991,27.698l-7.999,13.854l-18.47,31.991"/>
			<path fill="none" stroke="#00A89E" stroke-width="2" stroke-miterlimit="10" d="M103.835,169.407l-16.229,28.11
				c-2.314,1.093-8.696,10.274-8.696,10.274s4.344-9.562,4.426-12.74l16.481-28.547l18.591-32.199l7.949-13.769l16.049-27.797
				l7.993-13.844l10.458-18.114c0.074-0.128,1.632-0.525,2.771,0.132s1.573,2.205,0.878,3.398l-10.099,17.493l-7.993,13.844
				l-15.991,27.698l-7.994,13.856L103.835,169.407z"/>
			
				<line fill="none" stroke="#00A89E" stroke-width="2" stroke-miterlimit="10" x1="118.408" y1="134.305" x2="110.803" y2="113.511"/>
			<polyline fill="none" stroke="#00A89E" stroke-width="2" stroke-miterlimit="10" points="144.487,132.959 122.428,137.202 
				122.424,137.199 			"/>
			
				<line fill="none" stroke="#00A89E" stroke-width="2" stroke-miterlimit="10" x1="99.817" y1="166.504" x2="92.202" y2="145.718"/>
			
				<line fill="none" stroke="#00A89E" stroke-width="2" stroke-miterlimit="10" x1="125.892" y1="165.168" x2="103.835" y2="169.407"/>
			
				<line fill="none" stroke="#00A89E" stroke-width="2" stroke-miterlimit="10" x1="126.356" y1="120.537" x2="119.042" y2="99.24"/>
			
				<line fill="none" stroke="#00A89E" stroke-width="2" stroke-miterlimit="10" x1="152.481" y1="119.103" x2="130.427" y2="123.348"/>
			<polyline fill="none" stroke="#00A89E" stroke-width="2" stroke-miterlimit="10" points="142.409,92.754 142.405,92.74 
				135.298,72.246 			"/>
			<polyline fill="none" stroke="#00A89E" stroke-width="2" stroke-miterlimit="10" points="168.484,91.406 168.478,91.408 
				146.418,95.651 			"/>
			<polyline fill="none" stroke="#00A89E" stroke-width="2" stroke-miterlimit="10" points="150.4,78.903 150.398,78.896 
				143.294,58.397 			"/>
			
				<line fill="none" stroke="#00A89E" stroke-width="2" stroke-miterlimit="10" x1="176.476" y1="77.555" x2="154.406" y2="81.804"/>
		</g>
	</g>
</g>
<circle fill="none" stroke="#FFFFFF" stroke-width="4" stroke-linecap="round" stroke-linejoin="round" stroke-miterlimit="10" cx="123.905" cy="123.32" r="119.978"/>
<path fill="#FFFFFF" stroke="#FFFFFF" stroke-miterlimit="10" d="M244.446,123.538h-1.504c-3.191,52-41.053,96.978-92.154,109.33
	c-52.934,12.794-108.531-13.639-133.88-61.312c-6.28-11.815-11.987-26.542-12.264-40.081c-0.055-2.675-0.005-3.938,0.145-7.938
	H3.297c0.628,24,5.801,47.505,17.902,68.266c27.432,47.062,85.009,68.934,137.014,54.129c51.283-14.6,85.727-63.002,86.358-115.598
	c0.012-0.134,0.019-0.234,0.018-0.539C244.574,127.675,244.52,126.538,244.446,123.538z"/>
</svg>
