<?xml version="1.0" encoding="utf-8"?>
<!-- Generator: Adobe Illustrator 16.2.1, SVG Export Plug-In . SVG Version: 6.00 Build 0)  -->
<!DOCTYPE svg PUBLIC "-//W3C//DTD SVG 1.1//EN" "http://www.w3.org/Graphics/SVG/1.1/DTD/svg11.dtd">
<svg version="1.1" id="Layer_1" xmlns="http://www.w3.org/2000/svg" xmlns:xlink="http://www.w3.org/1999/xlink" x="0px" y="0px"
	 width="50px" height="50px" viewBox="0 0 50 50" enable-background="new 0 0 50 50" xml:space="preserve">
<g>
	<path fill="none" stroke="#3C3C3C" stroke-width="2" stroke-linecap="round" stroke-linejoin="round" stroke-miterlimit="10" d="
		M22.497,35.441h18.826 M18.533,26.471h22.791 M13.578,17.5h27.745"/>
	<path fill="#3C3C3C" d="M8.673,15.484c-1.224,0-2.216,0.992-2.216,2.215c0,1.224,0.992,2.218,2.216,2.218
		c1.224,0,2.216-0.994,2.216-2.218C10.889,16.476,9.897,15.484,8.673,15.484"/>
	<circle fill="none" stroke="#3C3C3C" stroke-miterlimit="10" cx="8.874" cy="17.7" r="2.217"/>
	<path fill="#3C3C3C" stroke="#3C3C3C" stroke-width="0.5" stroke-miterlimit="10" d="M14.384,24.377h-2.878
		c-0.288,0-0.654,0.366-0.654,0.654v2.879c0,0.288,0.366,0.653,0.654,0.653h2.878c0.289,0,0.654-0.365,0.654-0.653v-2.879
		C15.039,24.743,14.673,24.377,14.384,24.377"/>
	<path fill="none" stroke="#3C3C3C" stroke-width="0.25" stroke-miterlimit="10" d="M14.384,24.377h-2.878
		c-0.288,0-0.654,0.366-0.654,0.654v2.879c0,0.288,0.366,0.653,0.654,0.653h2.878c0.289,0,0.654-0.365,0.654-0.653v-2.879
		C15.039,24.743,14.673,24.377,14.384,24.377z"/>
	<path fill="#3C3C3C" d="M16.966,33.127c-0.094,0-0.189,0.062-0.259,0.186l-2.076,3.623c-0.144,0.247-0.027,0.452,0.259,0.452h4.152
		c0.285,0,0.401-0.205,0.259-0.452l-2.076-3.623C17.154,33.188,17.061,33.127,16.966,33.127"/>
	<path fill="none" stroke="#3C3C3C" stroke-miterlimit="10" d="M16.966,33.127c-0.094,0-0.189,0.062-0.259,0.186l-2.076,3.623
		c-0.144,0.247-0.027,0.452,0.259,0.452h4.152c0.285,0,0.401-0.205,0.259-0.452l-2.076-3.623
		C17.154,33.188,17.061,33.127,16.966,33.127z"/>
	<path fill="none" stroke="#3C3C3C" stroke-width="2" stroke-linecap="round" stroke-linejoin="round" stroke-miterlimit="10" d="
		M49.166,48.18c0,0.546-0.44,0.986-0.986,0.986H1.82c-0.546,0-0.987-0.44-0.987-0.986V1.819c0-0.544,0.441-0.985,0.987-0.985h46.36
		c0.546,0,0.986,0.441,0.986,0.985V48.18z"/>
</g>
</svg>
