<?xml version="1.0" encoding="utf-8"?>
<!-- Generator: Adobe Illustrator 16.2.1, SVG Export Plug-In . SVG Version: 6.00 Build 0)  -->
<!DOCTYPE svg PUBLIC "-//W3C//DTD SVG 1.1//EN" "http://www.w3.org/Graphics/SVG/1.1/DTD/svg11.dtd">
<svg version="1.1" id="Layer_1" xmlns="http://www.w3.org/2000/svg" xmlns:xlink="http://www.w3.org/1999/xlink" x="0px" y="0px"
	 width="50px" height="44.137px" viewBox="0 0 50 44.137" enable-background="new 0 0 50 44.137" xml:space="preserve">
<path fill="#3C3C3C" d="M40,44.137c-0.296,0-0.583-0.131-0.776-0.37L32.108,35H6.868C3.209,35,0,31.91,0,28.387V6.263
	C0,2.81,3.081,0,6.868,0h36.874C47.368,0,50,2.634,50,6.263v22.124C50,32.095,47.251,35,43.742,35H41v8.137
	c0,0.424-0.267,0.801-0.666,0.942C40.225,44.118,40.112,44.137,40,44.137z M6.868,2C4.527,2,2,3.63,2,6.263v22.124
	C2,30.845,4.274,33,6.868,33h25.717c0.302,0,0.587,0.136,0.776,0.37L39,40.317V34c0-0.553,0.447-1,1-1h3.742
	C46.13,33,48,30.974,48,28.387V6.263C48,3.753,46.249,2,43.742,2H6.868z"/>
</svg>
