<?xml version="1.0" encoding="utf-8"?>
<!-- Generator: Adobe Illustrator 16.2.1, SVG Export Plug-In . SVG Version: 6.00 Build 0)  -->
<!DOCTYPE svg PUBLIC "-//W3C//DTD SVG 1.1//EN" "http://www.w3.org/Graphics/SVG/1.1/DTD/svg11.dtd">
<svg version="1.1" id="Layer_1" xmlns="http://www.w3.org/2000/svg" xmlns:xlink="http://www.w3.org/1999/xlink" x="0px" y="0px"
	 width="45.784px" height="50px" viewBox="0 0 45.784 50" enable-background="new 0 0 45.784 50" xml:space="preserve">
<path fill="#3C3C3C" d="M42.159,49.962H6.006c-2.25,0-4.368-2.795-4.368-4.961V24.573l-1.166-2.625
	c-0.938-1.87-0.06-4.264,1.976-5.297L34.737,0.44c0.531-0.268,1.104-0.403,1.701-0.403c1.518,0,2.956,0.899,3.666,2.29l2.717,5.644
	c0.23,0.479,0.038,1.055-0.434,1.3l-28.17,14.625H44.8c0.544,0,0.984,0.44,0.984,0.984v20.122
	C45.784,47.081,44.524,49.962,42.159,49.962z M36.438,2.005c-0.288,0-0.562,0.065-0.818,0.194L3.333,18.409
	c-0.931,0.473-1.612,1.64-1.082,2.699l1.271,2.856c0.056,0.126,0.085,0.262,0.085,0.4v20.637c0,1.259,1.391,2.993,2.399,2.993
	h36.153c0.876,0,1.657-1.674,1.657-2.993V25.864h-33.63c-0.453,0-0.849-0.31-0.956-0.751c-0.107-0.44,0.1-0.898,0.503-1.107
	L40.633,7.964l-2.292-4.763C37.974,2.482,37.224,2.005,36.438,2.005z M27.092,40.927h-12.05c-1.373,0-2.488-1.118-2.488-2.491
	c0-1.374,1.115-2.491,2.488-2.491h12.05c1.374,0,2.491,1.117,2.491,2.491C29.583,39.809,28.466,40.927,27.092,40.927z
	 M15.042,37.912c-0.287,0-0.521,0.235-0.521,0.523c0,0.283,0.238,0.522,0.521,0.522h12.05c0.284,0,0.523-0.239,0.523-0.522
	c0-0.288-0.234-0.523-0.523-0.523H15.042z M36.132,34.898h-21.09c-1.373,0-2.488-1.116-2.488-2.49c0-1.373,1.115-2.49,2.488-2.49
	h21.09c1.373,0,2.49,1.117,2.49,2.49C38.622,33.782,37.505,34.898,36.132,34.898z M15.042,31.886c-0.287,0-0.521,0.234-0.521,0.522
	s0.233,0.522,0.521,0.522h21.09c0.287,0,0.521-0.234,0.521-0.522s-0.234-0.522-0.521-0.522H15.042z"/>
</svg>
