<?xml version="1.0" encoding="utf-8"?>
<!-- Generator: Adobe Illustrator 16.2.1, SVG Export Plug-In . SVG Version: 6.00 Build 0)  -->
<!DOCTYPE svg PUBLIC "-//W3C//DTD SVG 1.1//EN" "http://www.w3.org/Graphics/SVG/1.1/DTD/svg11.dtd">
<svg version="1.1" id="Layer_1" xmlns="http://www.w3.org/2000/svg" xmlns:xlink="http://www.w3.org/1999/xlink" x="0px" y="0px"
	 width="43.347px" height="50px" viewBox="0 0 43.347 50" enable-background="new 0 0 43.347 50" xml:space="preserve">
<path fill="#3C3C3C" d="M35.82,49.825c-0.32,0-0.622-0.153-0.811-0.414L21.593,30.867L8.25,49.222
	c-0.195,0.27-0.504,0.439-0.845,0.411c-0.333-0.012-0.638-0.188-0.813-0.472l-1.48-2.386c-2.048-3.297-1.908-7.203,0.393-10.998
	l0.097-0.145l9.593-13.695c-1.337-2.045-2.27-3.823-2.967-5.151c-0.063-0.122-0.128-0.245-0.193-0.369
	c-0.639,0.333-1.396,0.596-2.312,0.805c-0.505,0.116-1.027,0.175-1.552,0.175c-3.599,0-7.056-2.907-7.87-6.618
	C-0.742,6.998,0.925,2.005,5.454,0.624c0.793-0.279,1.667-0.427,2.558-0.427c3.488,0,6.749,2.264,7.93,5.504
	c0.284,0.641,0.552,1.351,0.834,2.104c0.985,2.635,1.916,5.122,4.793,7.415l0.114-0.09c2.951-2.31,3.896-4.818,4.896-7.474
	c0.288-0.771,0.553-1.467,0.86-2.161c1.159-3.169,4.415-5.425,7.894-5.425c0.901,0,1.783,0.15,2.619,0.447
	c4.492,1.376,6.147,6.372,5.082,10.203c-0.809,3.649-4.266,6.549-7.858,6.549c-0.529,0-1.058-0.06-1.57-0.179
	c-0.913-0.21-1.669-0.474-2.306-0.809c-0.066,0.124-0.132,0.249-0.196,0.371c-0.726,1.374-1.693,3.208-3.083,5.302l9.696,13.907
	c0.018,0.024,0.064,0.104,0.079,0.131c2.278,3.777,2.41,7.683,0.358,10.976l-1.485,2.385c-0.176,0.283-0.481,0.46-0.814,0.471
	C35.844,49.825,35.832,49.825,35.82,49.825z M21.595,28.164L21.595,28.164c0.321,0,0.622,0.154,0.811,0.414l13.353,18.455
	l0.699-1.121c1.634-2.623,1.496-5.785-0.386-8.906l-10.084-14.47c-0.238-0.341-0.239-0.794-0.004-1.137
	c1.534-2.238,2.583-4.225,3.35-5.676c0.245-0.465,0.504-0.955,0.733-1.362c0.146-0.257,0.397-0.438,0.688-0.491
	c0.291-0.057,0.59,0.023,0.818,0.211c0.354,0.292,0.996,0.719,2.483,1.061c0.365,0.085,0.741,0.128,1.119,0.128
	c2.692,0,5.292-2.211,5.918-5.033c0.831-2.992-0.493-6.815-3.769-7.82c-3.274-1.157-6.903,0.749-8.033,3.83
	c-0.31,0.705-0.563,1.372-0.841,2.114c-1.005,2.668-2.144,5.69-5.536,8.346l-0.732,0.573c-0.361,0.284-0.871,0.283-1.234-0.001
	l-0.533-0.419c-3.383-2.657-4.514-5.682-5.512-8.351c-0.27-0.717-0.523-1.395-0.817-2.062c-0.922-2.526-3.41-4.249-6.074-4.249
	c-0.664,0-1.315,0.11-1.935,0.328c-3.313,1.011-4.646,4.833-3.838,7.777c0.634,2.881,3.233,5.098,5.93,5.098
	c0.374,0,0.746-0.042,1.105-0.124c1.493-0.341,2.136-0.767,2.489-1.058c0.229-0.188,0.529-0.263,0.82-0.21
	c0.291,0.055,0.542,0.236,0.687,0.494c0.228,0.405,0.485,0.896,0.728,1.357c0.739,1.41,1.753,3.341,3.234,5.536
	c0.231,0.343,0.228,0.794-0.01,1.133L7.188,36.856c-1.863,3.076-2.007,6.239-0.377,8.864l0.696,1.122l13.279-18.267
	C20.974,28.317,21.274,28.164,21.595,28.164z M8.5,13.576c-1.319,0-2.559-0.52-3.491-1.463c-1.085-1.098-1.604-2.798-1.354-4.436
	c0.221-1.436,0.99-2.57,2.167-3.194C6.443,4.085,7.201,3.864,8.01,3.864c1.33,0,2.671,0.613,3.679,1.683
	c0.992,1.052,1.516,2.413,1.438,3.733C13.128,11.947,10.775,13.576,8.5,13.576z M8.01,5.864c-0.423,0-0.82,0.116-1.183,0.346
	C5.943,6.682,5.703,7.519,5.633,7.979c-0.152,0.994,0.169,2.09,0.799,2.728c0.554,0.561,1.288,0.869,2.068,0.869
	c1.274,0,2.628-0.826,2.628-2.355c0.048-0.832-0.279-1.649-0.895-2.302C9.61,6.258,8.779,5.864,8.01,5.864z M34.851,13.448
	c-1.292,0-2.532-0.501-3.404-1.375c-0.792-0.795-1.228-1.857-1.225-2.992c-0.074-1.257,0.452-2.615,1.443-3.665
	c1.626-1.72,4.125-2.178,5.938-1.016c1.106,0.584,1.874,1.719,2.092,3.155c0.248,1.641-0.274,3.341-1.363,4.438
	C37.401,12.931,36.165,13.448,34.851,13.448z M35.342,5.736c-0.769,0-1.6,0.394-2.223,1.053c-0.615,0.652-0.943,1.467-0.899,2.237
	c0,0.828,0.35,1.34,0.643,1.634c0.499,0.5,1.224,0.788,1.988,0.788c0.777,0,1.509-0.307,2.062-0.864
	c0.633-0.637,0.956-1.734,0.806-2.73c-0.069-0.46-0.309-1.296-1.122-1.729C36.164,5.853,35.766,5.736,35.342,5.736z"/>
</svg>
