<?xml version="1.0" encoding="utf-8"?>
<!-- Generator: Adobe Illustrator 16.2.1, SVG Export Plug-In . SVG Version: 6.00 Build 0)  -->
<!DOCTYPE svg PUBLIC "-//W3C//DTD SVG 1.1//EN" "http://www.w3.org/Graphics/SVG/1.1/DTD/svg11.dtd">
<svg version="1.1" id="Layer_1" xmlns="http://www.w3.org/2000/svg" xmlns:xlink="http://www.w3.org/1999/xlink" x="0px" y="0px"
	 width="150px" height="133px" viewBox="0 0 150 133" enable-background="new 0 0 150 133" xml:space="preserve">
<g>
	<path d="M133.285,1.5C141.512,1.5,148,8.132,148,16.927v69.138c0,8.759-6.288,15.436-14.515,15.436h-9.283
		c-1.104,0-2.202,0.824-2.202,1.929v23.476l-21.988-24.77c-0.379-0.426-0.821-0.635-1.392-0.635H18.254
		C9.551,101.5,2,94.249,2,86.064V16.927C2,8.709,9.551,1.5,18.254,1.5H133 M133.485-0.5H18.254C8.708-0.5,0,7.381,0,16.927v69.138
		C0,95.611,8.708,103.5,18.254,103.5H98.62L124,132.158V103.5h9.485c9.545,0,16.515-7.889,16.515-17.436V16.927
		C150,7.381,143.072-0.5,133.527-0.5H133.485z"/>
</g>
</svg>
