<?xml version="1.0" encoding="utf-8"?>
<!-- Generator: Adobe Illustrator 16.2.1, SVG Export Plug-In . SVG Version: 6.00 Build 0)  -->
<!DOCTYPE svg PUBLIC "-//W3C//DTD SVG 1.1//EN" "http://www.w3.org/Graphics/SVG/1.1/DTD/svg11.dtd">
<svg version="1.1" id="Layer_1" xmlns="http://www.w3.org/2000/svg" xmlns:xlink="http://www.w3.org/1999/xlink" x="0px" y="0px"
	 width="102px" height="150px" viewBox="0 0 102 150" enable-background="new 0 0 102 150" xml:space="preserve">
<g>
	<g>
		<g>
			<path d="M100,6v142H2V6h8v72.124c0,0.825,0.739,1.565,1.508,1.864c0.236,0.092,0.598,0.136,0.841,0.136
				c0.551,0,1.147-0.228,1.534-0.65l10.37-11.305l10.356,11.305c0.387,0.423,0.932,0.65,1.482,0.65c0.244,0,0.442-0.044,0.679-0.136
				C37.539,79.689,38,78.949,38,78.124V6H100 M102,4H36v74.124L24,65.205L12,78.124V4H0v146h102V4L102,4z"/>
		</g>
	</g>
	<polyline fill="none" stroke="#000000" stroke-width="2" stroke-linejoin="round" stroke-miterlimit="10" points="11,4 11,1 37,1 
		37,5 	"/>
</g>
</svg>
