<?xml version="1.0" encoding="utf-8"?>
<!-- Generator: Adobe Illustrator 16.2.1, SVG Export Plug-In . SVG Version: 6.00 Build 0)  -->
<!DOCTYPE svg PUBLIC "-//W3C//DTD SVG 1.1//EN" "http://www.w3.org/Graphics/SVG/1.1/DTD/svg11.dtd">
<svg version="1.1" id="Layer_1" xmlns="http://www.w3.org/2000/svg" xmlns:xlink="http://www.w3.org/1999/xlink" x="0px" y="0px"
	 width="116px" height="150px" viewBox="0 0 116 150" enable-background="new 0 0 116 150" xml:space="preserve">
<g>
	<g>
		<path d="M58,2c14.704,0,28.701,6.044,39.352,17.018C108.064,30.057,114,44.611,114,59.998v30c0,15.389-5.936,29.944-16.648,40.984
			C86.701,141.956,72.722,148,58.018,148s-28.711-6.044-39.361-17.018C7.943,119.942,2,105.387,2,89.998v-30
			c0-15.387,5.936-29.941,16.648-40.98C29.299,8.044,43.296,2,58,2 M58,0C26.568,0,0,27,0,59.998v30C0,123,26.568,150,58,150
			s58-27,58-60.002v-30C116,27,89.432,0,58,0L58,0z"/>
	</g>
	<g>
		<path d="M84.995,65.076c1.589,0,3.366,2.618,3.366,6.121c0,3.508-1.777,6.129-3.366,6.129c-1.593,0-3.368-2.517-3.368-6.129
			C81.627,67.59,83.402,65.076,84.995,65.076 M84.995,63.076c-2.968,0-5.368,3.64-5.368,8.121c0,4.492,2.4,8.129,5.368,8.129
			c2.959,0,5.366-3.637,5.366-8.129C90.361,66.716,87.954,63.076,84.995,63.076L84.995,63.076z"/>
	</g>
	<g>
		<path d="M32.658,65.076c1.588,0,3.363,2.618,3.363,6.121c0,3.508-1.775,6.129-3.363,6.129c-1.594,0-3.37-2.517-3.37-6.129
			C29.288,67.59,31.064,65.076,32.658,65.076 M32.658,63.076c-2.97,0-5.37,3.64-5.37,8.121c0,4.492,2.4,8.129,5.37,8.129
			c2.959,0,5.363-3.637,5.363-8.129C38.021,66.716,35.617,63.076,32.658,63.076L32.658,63.076z"/>
	</g>
	<g>
		<path d="M68.977,95.881c4.778,0,7.774,3.003,10.672,5.906c2.566,2.572,5.221,5.231,8.92,5.231c2.443,0,4.331-1.002,5.774-2.158
			c-0.758,1.947-1.978,4.245-3.799,6.315c-3.442,3.91-7.977,5.893-13.477,5.893c-0.001,0-0.002,0-0.003,0
			c-8.213,0-13.912-5.257-16.346-7.501c-1.167-1.077-1.753-1.617-2.721-1.617c-0.967,0-1.551,0.539-2.716,1.614
			c-2.433,2.245-8.13,7.504-16.348,7.504c-5.502,0-10.038-1.983-13.481-5.896c-1.82-2.068-3.038-4.365-3.797-6.311
			c1.443,1.156,3.329,2.157,5.771,2.157c3.702,0,6.356-2.66,8.925-5.232c2.897-2.903,5.894-5.905,10.67-5.905
			c5.333,0,7.638,3.272,8.746,4.845c0.509,0.722,1.085,1.54,2.23,1.54s1.723-0.818,2.231-1.541
			C61.338,99.152,63.644,95.881,68.977,95.881 M68.977,93.881c-8.009,0-10.448,6.385-10.979,6.385
			c-0.529,0-2.969-6.385-10.977-6.385c-10.092,0-13.133,11.138-19.595,11.138c-4.869,0-7.029-5.214-8.429-5.214
			c-0.045,0-0.09,0.005-0.134,0.017c-1.304,0.338,2.403,19.247,20.07,19.247c11.465,0,18.203-9.118,19.063-9.118
			c0.864,0,7.603,9.118,19.066,9.118c17.668,0.002,21.373-18.909,20.071-19.247c-0.044-0.012-0.089-0.017-0.134-0.017
			c-1.399-0.001-3.561,5.214-8.434,5.214C82.11,105.019,79.07,93.881,68.977,93.881L68.977,93.881z"/>
	</g>
</g>
</svg>
