<?xml version="1.0" encoding="utf-8"?>
<!-- Generator: Adobe Illustrator 16.2.1, SVG Export Plug-In . SVG Version: 6.00 Build 0)  -->
<!DOCTYPE svg PUBLIC "-//W3C//DTD SVG 1.1//EN" "http://www.w3.org/Graphics/SVG/1.1/DTD/svg11.dtd">
<svg version="1.1" id="Layer_1" xmlns="http://www.w3.org/2000/svg" xmlns:xlink="http://www.w3.org/1999/xlink" x="0px" y="0px"
	 width="116px" height="150px" viewBox="0 0 116 150" enable-background="new 0 0 116 150" xml:space="preserve">
<g>
	<g>
		<path d="M58,2c14.704,0,28.701,6.044,39.352,17.018C108.064,30.057,114,44.611,114,59.998v30c0,15.389-5.936,29.943-16.648,40.983
			C86.701,141.956,72.722,148,58.018,148s-28.711-6.044-39.36-17.019C7.943,119.941,2,105.387,2,89.998v-30
			c0-15.387,5.936-29.941,16.648-40.98C29.299,8.044,43.296,2,58,2 M58,0C26.568,0,0,27,0,59.998v30C0,122.998,26.568,150,58,150
			s58-27.002,58-60.002v-30C116,27,89.432,0,58,0L58,0z"/>
	</g>
	<g>
		<path fill="none" stroke="#000000" stroke-width="2" stroke-linecap="round" stroke-linejoin="round" stroke-miterlimit="10" d="
			M40.5,116.848c0,0,15.68,18.09,39.597,0"/>
		<path fill="none" stroke="#000000" stroke-width="2" stroke-linecap="round" stroke-linejoin="round" stroke-miterlimit="10" d="
			M51.792,100.551c0,0,4.905,4.603,15.331,0"/>
	</g>
	<g>
		<path d="M88.857,62.456c2.905,0,5.319,2.177,5.613,5.058c0.019,0.19,0.028,0.387,0.028,0.584c0,4.9-4.028,8.412-7.923,11.808
			c-1.743,1.52-3.422,2.982-4.766,4.564c-1.344-1.582-3.022-3.045-4.765-4.564c-3.896-3.396-7.923-6.908-7.923-11.808
			c0-0.191,0.01-0.388,0.029-0.58c0.293-2.886,2.706-5.062,5.612-5.062c2.278,0,4.32,1.356,5.202,3.456
			c0.312,0.742,1.038,1.226,1.843,1.226c0.001,0,0.001,0,0.001,0c0.805,0,1.531-0.482,1.844-1.224
			C84.538,63.813,86.58,62.456,88.857,62.456 M88.857,60.456c-3.172,0-5.89,1.932-7.047,4.682c-1.155-2.75-3.876-4.682-7.046-4.682
			c-3.958,0-7.211,3.006-7.603,6.86c-0.025,0.256-0.039,0.518-0.039,0.782c0,9.285,11.395,13.667,14.688,19.859
			c3.294-6.192,14.688-10.574,14.688-19.859c0-0.264-0.013-0.525-0.038-0.782C96.067,63.462,92.813,60.456,88.857,60.456
			L88.857,60.456z"/>
	</g>
	<g>
		<path d="M42.255,62.456c2.906,0,5.318,2.177,5.613,5.065c0.02,0.19,0.029,0.385,0.029,0.577c0,4.9-4.027,8.412-7.923,11.807
			c-1.743,1.52-3.422,2.983-4.766,4.565c-1.344-1.582-3.022-3.046-4.765-4.564c-3.896-3.396-7.923-6.908-7.923-11.808
			c0-0.205,0.01-0.399,0.028-0.58c0.292-2.886,2.706-5.062,5.614-5.062c2.276,0,4.318,1.357,5.201,3.457
			c0.312,0.742,1.038,1.225,1.844,1.225c0.805,0,1.531-0.482,1.844-1.224C37.937,63.813,39.979,62.456,42.255,62.456 M42.255,60.456
			c-3.172,0-5.889,1.932-7.046,4.682c-1.156-2.75-3.877-4.682-7.045-4.682c-3.959,0-7.214,3.006-7.604,6.86
			c-0.026,0.256-0.038,0.518-0.038,0.782c0,9.285,11.395,13.667,14.688,19.859c3.293-6.192,14.688-10.574,14.688-19.859
			c0-0.264-0.014-0.525-0.04-0.782C49.465,63.462,46.211,60.456,42.255,60.456L42.255,60.456z"/>
	</g>
</g>
</svg>
