<?xml version="1.0" encoding="utf-8"?>
<!-- Generator: Adobe Illustrator 16.2.1, SVG Export Plug-In . SVG Version: 6.00 Build 0)  -->
<!DOCTYPE svg PUBLIC "-//W3C//DTD SVG 1.1//EN" "http://www.w3.org/Graphics/SVG/1.1/DTD/svg11.dtd">
<svg version="1.1" id="Layer_1" xmlns="http://www.w3.org/2000/svg" xmlns:xlink="http://www.w3.org/1999/xlink" x="0px" y="0px"
	 width="137px" height="150px" viewBox="0 0 137 150" enable-background="new 0 0 137 150" xml:space="preserve">
<g>
	<path d="M110.708,2c2.859,0,5.585,1.725,6.925,4.354l7.625,15.839L27.68,72.846c-0.817,0.425-1.24,1.354-1.021,2.249
		s1.021,1.526,1.943,1.526h106.262v13.832v28.258v18.853c0,2.374-0.733,5.123-1.914,7.173c-0.856,1.489-2.307,3.264-4.348,3.264
		H15.527c-3.389,0-8.582-5.598-8.582-10.437v-18.853V90.453v-17.44c0-0.28-0.059-0.557-0.172-0.812L2.86,63.394
		c-0.013-0.028-0.026-0.056-0.04-0.084c-1.745-3.483-0.007-7.92,3.867-9.888L107.67,2.72C108.62,2.242,109.643,2,110.708,2
		 M43.791,104.889h65.961c3.7,0,6.711-3.012,6.711-6.713c0-3.7-3.011-6.711-6.711-6.711H43.791c-3.698,0-6.707,3.011-6.707,6.711
		C37.084,101.877,40.093,104.889,43.791,104.889 M43.791,123.738h37.69c3.702,0,6.714-3.012,6.714-6.713
		c0-3.7-3.012-6.711-6.714-6.711h-37.69c-3.698,0-6.707,3.011-6.707,6.711C37.084,120.727,40.093,123.738,43.791,123.738 M110.708,0
		c-1.329,0-2.67,0.296-3.937,0.934L5.79,51.635c-4.639,2.355-7.094,7.908-4.758,12.571l3.913,8.807v17.44v28.258v18.853
		c0,5.207,5.375,12.437,10.582,12.437h113.074c5.201,0,8.262-7.229,8.262-12.437v-18.853V90.453V74.621H28.602l99.3-51.547
		l-8.467-17.588C117.715,2.11,114.255,0,110.708,0L110.708,0z M43.791,102.889c-2.591,0-4.707-2.117-4.707-4.713
		s2.116-4.711,4.707-4.711h65.961c2.594,0,4.711,2.115,4.711,4.711s-2.117,4.713-4.711,4.713H43.791L43.791,102.889z
		 M43.791,121.738c-2.591,0-4.707-2.123-4.707-4.713c0-2.597,2.116-4.711,4.707-4.711h37.69c2.597,0,4.714,2.114,4.714,4.711
		c0,2.59-2.117,4.713-4.714,4.713H43.791L43.791,121.738z"/>
</g>
</svg>
