<?xml version="1.0" encoding="utf-8"?>
<!-- Generator: Adobe Illustrator 16.2.1, SVG Export Plug-In . SVG Version: 6.00 Build 0)  -->
<!DOCTYPE svg PUBLIC "-//W3C//DTD SVG 1.1//EN" "http://www.w3.org/Graphics/SVG/1.1/DTD/svg11.dtd">
<svg version="1.1" id="Layer_1" xmlns="http://www.w3.org/2000/svg" xmlns:xlink="http://www.w3.org/1999/xlink" x="0px" y="0px"
	 width="116px" height="150px" viewBox="0 0 116 150" enable-background="new 0 0 116 150" xml:space="preserve">
<g>
	<g>
		<path d="M85.777,65.076c1.589,0,3.365,2.618,3.365,6.121c0,3.508-1.776,6.129-3.365,6.129c-1.593,0-3.368-2.517-3.368-6.129
			C82.409,67.59,84.185,65.076,85.777,65.076 M85.777,63.076c-2.968,0-5.368,3.64-5.368,8.121c0,4.492,2.4,8.129,5.368,8.129
			c2.959,0,5.365-3.637,5.365-8.129C91.143,66.716,88.736,63.076,85.777,63.076L85.777,63.076z"/>
	</g>
	<g>
		<path d="M33.439,65.076c1.588,0,3.364,2.618,3.364,6.121c0,3.508-1.776,6.129-3.364,6.129c-1.594,0-3.37-2.517-3.37-6.129
			C30.069,67.59,31.846,65.076,33.439,65.076 M33.439,63.076c-2.97,0-5.37,3.64-5.37,8.121c0,4.492,2.4,8.129,5.37,8.129
			c2.959,0,5.364-3.637,5.364-8.129C38.804,66.716,36.398,63.076,33.439,63.076L33.439,63.076z"/>
	</g>
	<g>
		<path d="M58,2c14.704,0,28.701,6.044,39.352,17.018C108.064,30.057,114,44.611,114,59.998v30c0,15.389-5.936,29.944-16.648,40.984
			C86.701,141.956,72.722,148,58.018,148s-28.711-6.044-39.361-17.018C7.943,119.942,2,105.387,2,89.998v-30
			c0-15.387,5.936-29.941,16.648-40.98C29.299,8.044,43.296,2,58,2 M58,0C26.568,0,0,27,0,59.998v30C0,123,26.568,150,58,150
			s58-27,58-60.002v-30C116,27,89.432,0,58,0L58,0z"/>
	</g>
	<g>
		<path fill="none" stroke="#000000" stroke-width="2" stroke-linecap="round" stroke-linejoin="round" stroke-miterlimit="10" d="
			M40.5,116.848c0,0,15.68,18.09,39.596,0"/>
	</g>
	<g>
		<path d="M59.955,82.518c5.794,0,10.508,4.714,10.508,10.509c0,5.794-4.714,10.507-10.508,10.507S49.447,98.82,49.447,93.026
			C49.447,87.231,54.161,82.518,59.955,82.518 M59.955,80.518c-6.908,0-12.508,5.602-12.508,12.509
			c0,6.908,5.6,12.507,12.508,12.507c6.906,0,12.508-5.599,12.508-12.507C72.463,86.119,66.861,80.518,59.955,80.518L59.955,80.518z
			"/>
	</g>
</g>
</svg>
