<?xml version="1.0" encoding="utf-8"?>
<!-- Generator: Adobe Illustrator 16.2.1, SVG Export Plug-In . SVG Version: 6.00 Build 0)  -->
<!DOCTYPE svg PUBLIC "-//W3C//DTD SVG 1.1//EN" "http://www.w3.org/Graphics/SVG/1.1/DTD/svg11.dtd">
<svg version="1.1" id="Layer_1" xmlns="http://www.w3.org/2000/svg" xmlns:xlink="http://www.w3.org/1999/xlink" x="0px" y="0px"
	 width="116px" height="150px" viewBox="0 0 116 150" enable-background="new 0 0 116 150" xml:space="preserve">
<g>
	<g>
		<path d="M58,2c14.704,0,28.701,6.044,39.352,17.018C108.064,30.057,114,44.611,114,59.998v30c0,15.389-5.936,29.944-16.648,40.984
			C86.701,141.956,72.722,148,58.018,148s-28.711-6.044-39.36-17.018C7.943,119.942,2,105.387,2,89.998v-30
			c0-15.387,5.936-29.941,16.648-40.98C29.299,8.044,43.296,2,58,2 M58,0C26.568,0,0,27,0,59.998v30C0,123,26.568,150,58,150
			s58-27,58-60.002v-30C116,27,89.432,0,58,0L58,0z"/>
	</g>
	<g>
		<g>
			<path d="M56.907,41.727c6.254,0,11.424,1.404,14.951,4.061c3.869,2.915,5.831,7.361,5.831,13.217
				c0,5.763-3.542,9.456-7.293,13.366c-3.604,3.758-7.316,7.628-7.638,13.335h-12.59c-0.308-6.756,3.997-11.441,7.829-15.612
				c3.073-3.345,5.728-6.234,5.728-9.773c0-4.542-3.193-7.477-8.135-7.477c-3.755,0-6.396,1.676-8.972,3.9l-7.502-6.865
				C44.114,44.607,50.368,41.727,56.907,41.727 M56.468,98.479c5.104,0,8.953,4.038,8.953,9.394c0,5.353-3.849,9.39-8.953,9.39
				s-8.954-4.037-8.954-9.39C47.514,102.518,51.363,98.479,56.468,98.479 M56.907,39.727c-8.327,0-15.449,4.164-20.597,10.295
				l10.296,9.42c2.849-2.627,5.259-4.599,8.984-4.599c3.286,0,6.135,1.531,6.135,5.477c0,7.009-15.556,13.145-13.363,27.385h16.429
				C63.697,75.654,79.689,72.15,79.689,59.004C79.689,45.203,69.609,39.727,56.907,39.727L56.907,39.727z M56.468,96.479
				c-6.355,0-10.954,5.039-10.954,11.394c0,6.353,4.599,11.39,10.954,11.39c6.351,0,10.953-5.037,10.953-11.39
				C67.421,101.519,62.818,96.479,56.468,96.479L56.468,96.479z"/>
		</g>
	</g>
</g>
</svg>
