<?xml version="1.0" encoding="utf-8"?>
<!-- Generator: Adobe Illustrator 16.2.1, SVG Export Plug-In . SVG Version: 6.00 Build 0)  -->
<!DOCTYPE svg PUBLIC "-//W3C//DTD SVG 1.1//EN" "http://www.w3.org/Graphics/SVG/1.1/DTD/svg11.dtd">
<svg version="1.1" id="Layer_1" xmlns="http://www.w3.org/2000/svg" xmlns:xlink="http://www.w3.org/1999/xlink" x="0px" y="0px"
	 width="116px" height="150px" viewBox="0 0 116 150" enable-background="new 0 0 116 150" xml:space="preserve">
<g>
	<g>
		<path d="M58,2c14.704,0,28.701,6.044,39.352,17.018C108.064,30.057,114,44.611,114,59.998v30c0,15.389-5.936,29.944-16.648,40.984
			C86.701,141.956,72.722,148,58.018,148s-28.711-6.044-39.361-17.018C7.943,119.942,2,105.387,2,89.998v-30
			c0-15.387,5.936-29.941,16.648-40.98C29.299,8.044,43.296,2,58,2 M58,0C26.568,0,0,27,0,59.998v30C0,123,26.568,150,58,150
			s58-27,58-60.002v-30C116,27,89.432,0,58,0L58,0z"/>
	</g>
	<g>
		<path fill="none" stroke="#000000" stroke-width="2" stroke-linecap="round" stroke-linejoin="round" stroke-miterlimit="10" d="
			M40.141,116.848c0,0,15.681,18.09,39.597,0"/>
		<path fill="none" stroke="#000000" stroke-width="2" stroke-linecap="round" stroke-linejoin="round" stroke-miterlimit="10" d="
			M51.434,100.551c0,0,4.905,4.601,15.332,0"/>
	</g>
	<g>
		<path d="M84.995,65.076c1.589,0,3.366,2.618,3.366,6.121c0,3.508-1.777,6.129-3.366,6.129c-1.593,0-3.368-2.517-3.368-6.129
			C81.627,67.59,83.402,65.076,84.995,65.076 M84.995,63.076c-2.968,0-5.368,3.64-5.368,8.121c0,4.492,2.4,8.129,5.368,8.129
			c2.959,0,5.366-3.637,5.366-8.129C90.361,66.716,87.954,63.076,84.995,63.076L84.995,63.076z"/>
	</g>
	<g>
		<path d="M32.658,65.076c1.588,0,3.363,2.618,3.363,6.121c0,3.508-1.775,6.129-3.363,6.129c-1.594,0-3.37-2.517-3.37-6.129
			C29.288,67.59,31.064,65.076,32.658,65.076 M32.658,63.076c-2.97,0-5.37,3.64-5.37,8.121c0,4.492,2.4,8.129,5.37,8.129
			c2.959,0,5.363-3.637,5.363-8.129C38.021,66.716,35.617,63.076,32.658,63.076L32.658,63.076z"/>
	</g>
	
		<line fill="none" stroke="#000000" stroke-width="2" stroke-linejoin="round" stroke-miterlimit="10" x1="0" y1="53" x2="116" y2="53"/>
	<path fill="none" stroke="#000000" stroke-width="2" stroke-linejoin="round" stroke-miterlimit="10" d="M0.52,74.206L0.52,74.206
		c0,0,18.282,14.879,28.679,16.673c9.759,1.681,25.745-10.475,29.685-13.158c3.905,2.492,18.378,11.435,27.146,12.977
		c10.205,1.792,29.351-10.238,29.351-10.238l0,0"/>
</g>
</svg>
