<?xml version="1.0" encoding="utf-8"?>
<!-- Generator: Adobe Illustrator 16.2.1, SVG Export Plug-In . SVG Version: 6.00 Build 0)  -->
<!DOCTYPE svg PUBLIC "-//W3C//DTD SVG 1.1//EN" "http://www.w3.org/Graphics/SVG/1.1/DTD/svg11.dtd">
<svg version="1.1" id="Layer_1" xmlns="http://www.w3.org/2000/svg" xmlns:xlink="http://www.w3.org/1999/xlink" x="0px" y="0px"
	 width="130px" height="150px" viewBox="0 0 130 150" enable-background="new 0 0 130 150" xml:space="preserve">
<g>
	<path d="M107.899,2c2.254,0,4.441,0.373,6.502,1.109c0.029,0.01,0.058,0.02,0.087,0.029c10.925,3.348,15.358,16.04,12.646,25.794
		c-0.01,0.034-0.019,0.069-0.026,0.104c-2.076,9.368-10.729,16.707-19.7,16.707c-1.274,0-2.543-0.145-3.774-0.43
		c-4.913-1.134-7.072-2.577-8.269-3.564c-0.36-0.298-0.812-0.458-1.272-0.458c-0.121,0-0.243,0.011-0.363,0.033
		c-0.582,0.108-1.086,0.467-1.377,0.981c-0.748,1.321-1.572,2.885-2.283,4.242C87.65,51.127,84.339,57.4,79.472,64.499
		c-0.471,0.686-0.467,1.592,0.009,2.275l31.637,45.371l0.054,0.095c0.009,0.016,0.019,0.031,0.027,0.046
		c6.145,10.191,6.571,20.548,1.201,29.164l-3.096,4.968L66.365,87.07c-0.375-0.52-0.977-0.827-1.618-0.828c-0.001,0-0.001,0-0.002,0
		c-0.64,0-1.241,0.307-1.618,0.824L20.42,145.814l-3.085-4.968c-5.35-8.622-4.907-18.967,1.246-29.132l0.178-0.269l31.318-44.705
		c0.476-0.678,0.483-1.58,0.021-2.266c-4.678-6.932-7.882-13.034-10.226-17.497c-0.685-1.306-1.537-2.931-2.268-4.236
		c-0.29-0.517-0.794-0.878-1.376-0.988c-0.123-0.023-0.246-0.035-0.369-0.035c-0.46,0-0.91,0.159-1.271,0.456
		c-1.196,0.984-3.356,2.422-8.287,3.551c-1.22,0.28-2.474,0.421-3.728,0.421c-8.987,0-17.641-7.359-19.699-16.753
		c-0.008-0.034-0.017-0.068-0.025-0.102C0.167,19.532,4.629,6.843,15.549,3.513c0.026-0.008,0.053-0.017,0.079-0.026
		c2.062-0.725,4.232-1.092,6.453-1.092c8.837,0,17.093,5.719,20.078,13.909c0.015,0.041,0.031,0.082,0.049,0.122
		c0.899,2.04,1.686,4.136,2.519,6.356l0.068,0.183c3.234,8.644,6.579,17.581,16.951,25.731l1.679,1.317
		c0.362,0.285,0.798,0.427,1.234,0.427c0.436,0,0.872-0.142,1.234-0.426l2.295-1.8c10.4-8.14,13.768-17.074,17.025-25.717
		c0.917-2.447,1.69-4.48,2.588-6.511c0.018-0.039,0.034-0.079,0.049-0.12C90.846,7.701,99.09,2,107.899,2 M92.987,25.222
		c0.006,3.282,1.22,6.23,3.514,8.529c2.524,2.532,6.127,3.984,9.884,3.984c3.823,0,7.419-1.504,10.124-4.232
		c3.124-3.145,4.681-8.232,3.966-12.962c-0.622-4.117-2.795-7.369-6.123-9.168c-1.96-1.235-4.119-1.861-6.422-1.861
		c-3.862,0-7.771,1.794-10.725,4.923C94.321,17.489,92.786,21.417,92.987,25.222 M15.665,11.76c-3.33,1.795-5.509,5.043-6.139,9.156
		c-0.723,4.724,0.822,9.813,3.937,12.965c2.711,2.746,6.316,4.258,10.153,4.258c6.567,0,13.36-4.668,13.395-12.483
		c0.207-3.815-1.326-7.754-4.213-10.816c-2.952-3.132-6.861-4.927-10.727-4.927H22.07C19.776,9.914,17.622,10.535,15.665,11.76
		 M107.899,0c-9.662,0-18.643,6.226-21.927,15.176c-0.947,2.143-1.769,4.315-2.632,6.618c-3.158,8.38-6.431,17.054-16.385,24.844
		l-2.297,1.801l-1.679-1.317c-9.928-7.802-13.173-16.47-16.312-24.859c-0.867-2.312-1.683-4.496-2.63-6.644
		C40.766,6.641,31.776,0.395,22.081,0.395c-2.45,0-4.845,0.407-7.116,1.205C2.873,5.288-2.032,19.078,0.921,29.824
		c2.255,10.288,11.724,18.325,21.653,18.325c1.406,0,2.816-0.161,4.175-0.472c4.695-1.074,7.307-2.472,9.11-3.956
		c0.7,1.25,1.496,2.766,2.241,4.187c2.409,4.588,5.597,10.659,10.339,17.687l-31.335,44.727l-0.214,0.324
		c-6.581,10.851-7.029,21.949-1.255,31.256l4.653,7.494l44.456-61.153L109.428,150l4.669-7.493
		c5.789-9.288,5.368-20.385-1.186-31.254l-0.1-0.176L81.121,65.63c4.926-7.184,8.234-13.449,10.716-18.149
		c0.748-1.427,1.546-2.938,2.255-4.19c1.798,1.483,4.41,2.89,9.092,3.97c1.384,0.321,2.803,0.481,4.224,0.481
		c9.908,0,19.378-8.009,21.653-18.274c2.986-10.737-1.893-24.536-13.986-28.242C112.788,0.409,110.378,0,107.899,0L107.899,0z
		 M106.385,35.736c-5.869,0-11.415-4.137-11.397-10.568c-0.407-7.075,6.193-13.655,12.942-13.655c1.84,0,3.689,0.489,5.412,1.589
		c6.775,3.603,6.73,13.977,1.748,18.992C112.597,34.609,109.446,35.736,106.385,35.736L106.385,35.736z M23.616,36.14
		c-3.072,0-6.232-1.133-8.73-3.663C9.92,27.45,9.891,17.087,16.671,13.49c1.721-1.092,3.566-1.577,5.399-1.577
		c6.763,0,13.359,6.599,12.94,13.684C35.011,32.018,29.475,36.14,23.616,36.14L23.616,36.14z"/>
</g>
</svg>
