<?xml version="1.0" encoding="utf-8"?>
<!-- Generator: Adobe Illustrator 16.2.1, SVG Export Plug-In . SVG Version: 6.00 Build 0)  -->
<!DOCTYPE svg PUBLIC "-//W3C//DTD SVG 1.1//EN" "http://www.w3.org/Graphics/SVG/1.1/DTD/svg11.dtd">
<svg version="1.1" id="Layer_1" xmlns="http://www.w3.org/2000/svg" xmlns:xlink="http://www.w3.org/1999/xlink" x="0px" y="0px"
	 width="150px" height="143px" viewBox="0 0 150 143" enable-background="new 0 0 150 143" xml:space="preserve">
<g>
	<path d="M75.002,4.519l21.383,43.327c0.291,0.59,0.854,1,1.506,1.094l47.811,6.946l-34.6,33.721
		c-0.471,0.46-0.686,1.122-0.574,1.771l8.168,47.624l-42.763-22.482c-0.291-0.153-0.61-0.229-0.931-0.229
		c-0.319,0-0.64,0.076-0.931,0.229l-42.769,22.482l8.17-47.624c0.111-0.648-0.104-1.311-0.574-1.771l-34.6-33.721l47.811-6.946
		c0.652-0.094,1.215-0.503,1.506-1.094L75.002,4.519 M75.002,0l-23.18,46.96L0,54.489l37.502,36.55l-8.855,51.618l46.355-24.368
		l46.35,24.368l-8.854-51.618L150,54.489L98.178,46.96L75.002,0L75.002,0z"/>
</g>
</svg>
