<?xml version="1.0" encoding="utf-8"?>
<!-- Generator: Adobe Illustrator 16.2.1, SVG Export Plug-In . SVG Version: 6.00 Build 0)  -->
<!DOCTYPE svg PUBLIC "-//W3C//DTD SVG 1.1//EN" "http://www.w3.org/Graphics/SVG/1.1/DTD/svg11.dtd">
<svg version="1.1" id="Layer_1" xmlns="http://www.w3.org/2000/svg" xmlns:xlink="http://www.w3.org/1999/xlink" x="0px" y="0px"
	 width="116px" height="150px" viewBox="0 0 116 150" enable-background="new 0 0 116 150" xml:space="preserve">
<g>
	<g>
		<path d="M85.777,65.076c1.589,0,3.365,2.618,3.365,6.121c0,3.508-1.776,6.13-3.365,6.13c-1.593,0-3.368-2.518-3.368-6.13
			C82.409,67.59,84.185,65.076,85.777,65.076 M85.777,63.076c-2.968,0-5.368,3.64-5.368,8.121c0,4.492,2.4,8.13,5.368,8.13
			c2.959,0,5.365-3.638,5.365-8.13C91.143,66.716,88.736,63.076,85.777,63.076L85.777,63.076z"/>
	</g>
	<g>
		<path d="M33.439,65.076c1.588,0,3.364,2.618,3.364,6.121c0,3.508-1.776,6.13-3.364,6.13c-1.594,0-3.37-2.518-3.37-6.13
			C30.07,67.59,31.846,65.076,33.439,65.076 M33.439,63.076c-2.969,0-5.37,3.64-5.37,8.121c0,4.492,2.4,8.13,5.37,8.13
			c2.959,0,5.364-3.638,5.364-8.13C38.804,66.716,36.398,63.076,33.439,63.076L33.439,63.076z"/>
	</g>
	<g>
		<path d="M58,2c14.709,0,28.685,6.044,39.353,17.019C108.088,30.062,114,44.616,114,59.998v30.001
			c0,15.384-5.912,29.938-16.647,40.981C86.685,141.956,72.709,148,58,148c-14.708,0-28.684-6.044-39.353-17.02
			C7.912,119.937,2,105.383,2,89.999V59.998c0-15.382,5.912-29.936,16.647-40.979C29.316,8.044,43.292,2,58,2 M58,0
			C26.569,0,0,27,0,59.998v30.001C0,123,26.569,150,58,150c31.432,0,58-27,58-60.001V59.998C116,27,89.432,0,58,0L58,0z"/>
	</g>
	<g>
		<path fill="none" stroke="#000000" stroke-width="2" stroke-linecap="round" stroke-linejoin="round" stroke-miterlimit="10" d="
			M40.5,116.847c0,0,15.681,18.09,39.596,0"/>
		<path fill="none" stroke="#000000" stroke-width="2" stroke-linecap="round" stroke-linejoin="round" stroke-miterlimit="10" d="
			M51.792,100.55c0,0,4.906,4.602,15.33,0"/>
	</g>
</g>
</svg>
