<?xml version="1.0" encoding="utf-8"?>
<!-- Generator: Adobe Illustrator 16.2.1, SVG Export Plug-In . SVG Version: 6.00 Build 0)  -->
<!DOCTYPE svg PUBLIC "-//W3C//DTD SVG 1.1//EN" "http://www.w3.org/Graphics/SVG/1.1/DTD/svg11.dtd">
<svg version="1.1" id="Layer_1" xmlns="http://www.w3.org/2000/svg" xmlns:xlink="http://www.w3.org/1999/xlink" x="0px" y="0px"
	 width="116px" height="150px" viewBox="0 0 116 150" enable-background="new 0 0 116 150" xml:space="preserve">
<g>
	<g>
		<path d="M58,2c14.704,0,28.701,6.044,39.352,17.018C108.064,30.057,114,44.611,114,59.998v30c0,15.389-5.936,29.944-16.648,40.984
			C86.701,141.956,72.722,148,58.018,148s-28.711-6.044-39.361-17.018C7.943,119.942,2,105.387,2,89.998v-30
			c0-15.387,5.936-29.941,16.648-40.98C29.299,8.044,43.296,2,58,2 M58,0C26.568,0,0,27,0,59.998v30C0,123,26.568,150,58,150
			s58-27,58-60.002v-30C116,27,89.432,0,58,0L58,0z"/>
	</g>
	<g>
		<path fill="none" stroke="#000000" stroke-width="2" stroke-linecap="round" stroke-linejoin="round" stroke-miterlimit="10" d="
			M40.5,116.848c0,0,15.68,18.09,39.596,0"/>
		<path fill="none" stroke="#000000" stroke-width="2" stroke-linecap="round" stroke-linejoin="round" stroke-miterlimit="10" d="
			M51.792,100.551c0,0,4.906,4.601,15.33,0"/>
	</g>
	<g>
		<path d="M85.777,64.295c1.589,0,3.365,2.618,3.365,6.121c0,3.507-1.776,6.128-3.365,6.128c-1.593,0-3.368-2.517-3.368-6.128
			C82.409,66.809,84.185,64.295,85.777,64.295 M85.777,62.295c-2.968,0-5.368,3.64-5.368,8.121c0,4.492,2.4,8.128,5.368,8.128
			c2.959,0,5.365-3.636,5.365-8.128C91.143,65.935,88.736,62.295,85.777,62.295L85.777,62.295z"/>
	</g>
	<g>
		<path d="M33.439,64.295c1.588,0,3.364,2.618,3.364,6.121c0,3.507-1.776,6.128-3.364,6.128c-1.594,0-3.37-2.517-3.37-6.128
			C30.069,66.809,31.846,64.295,33.439,64.295 M33.439,62.295c-2.97,0-5.37,3.64-5.37,8.121c0,4.492,2.4,8.128,5.37,8.128
			c2.959,0,5.364-3.636,5.364-8.128C38.804,65.935,36.398,62.295,33.439,62.295L33.439,62.295z"/>
	</g>
	<path fill="none" stroke="#000000" stroke-width="2" stroke-linecap="round" stroke-linejoin="round" stroke-miterlimit="10" d="
		M75.394,84.428c0,0,9.577,7.621,20.911,0"/>
	<path fill="none" stroke="#000000" stroke-width="2" stroke-linecap="round" stroke-linejoin="round" stroke-miterlimit="10" d="
		M22.235,84.428c0,0,9.576,7.621,20.912,0"/>
</g>
</svg>
